M48
; DRILL file {KiCad 9.0.6} date 2026-01-07T23:40:22+0530
; FORMAT={-:-/ absolute / metric / decimal}
; #@! TF.CreationDate,2026-01-07T23:40:22+05:30
; #@! TF.GenerationSoftware,Kicad,Pcbnew,9.0.6
; #@! TF.FileFunction,NonPlated,1,2,NPTH
FMAT,2
METRIC
; #@! TA.AperFunction,NonPlated,NPTH,ComponentDrill
T1C0.500
; #@! TA.AperFunction,NonPlated,NPTH,ComponentDrill
T2C1.700
; #@! TA.AperFunction,NonPlated,NPTH,ComponentDrill
T3C3.400
%
G90
G05
T1
X144.368Y-65.409
X144.368Y-66.159
X144.368Y-66.909
X144.408Y-93.91
X144.408Y-94.66
X144.408Y-95.41
X145.868Y-65.409
X145.868Y-66.159
X145.868Y-66.909
X145.908Y-93.91
X145.908Y-94.66
X145.908Y-95.41
T2
X35.759Y-76.163
X35.769Y-93.153
X35.774Y-110.153
X46.759Y-76.163
X46.769Y-93.153
X46.774Y-110.153
X53.754Y-64.113
X53.774Y-81.123
X53.774Y-98.123
X64.754Y-64.113
X64.774Y-81.123
X64.774Y-98.123
X71.754Y-58.033
X71.764Y-75.043
X71.774Y-92.053
X82.754Y-58.033
X82.764Y-75.043
X82.774Y-92.053
X82.999Y-122.753
X89.774Y-64.523
X89.774Y-81.523
X89.784Y-98.223
X93.999Y-122.753
X100.774Y-64.523
X100.774Y-81.523
X100.784Y-98.223
X103.19Y-124.051
X107.774Y-66.703
X107.774Y-83.693
X107.774Y-100.693
X113.764Y-127.083
X118.774Y-66.703
X118.774Y-83.693
X118.774Y-100.693
X122.077Y-130.603
X125.774Y-88.789
X125.774Y-105.779
X131.604Y-136.103
X136.774Y-88.789
X136.774Y-105.779
X153.488Y-105.291
X153.503Y-88.291
X158.709Y-136.103
X164.488Y-105.291
X164.503Y-88.291
X168.236Y-130.603
X171.498Y-100.721
X171.501Y-83.721
X171.508Y-66.711
X176.544Y-127.063
X182.498Y-100.721
X182.501Y-83.721
X182.508Y-66.711
X187.118Y-124.031
X189.508Y-81.521
X189.508Y-64.521
X189.508Y-98.513
X196.288Y-122.761
X200.508Y-81.521
X200.508Y-64.521
X200.508Y-98.513
X207.288Y-122.761
X207.498Y-92.031
X207.508Y-58.021
X207.528Y-75.041
X218.498Y-92.031
X218.508Y-58.021
X218.528Y-75.041
X225.518Y-98.101
X225.528Y-81.073
X225.533Y-64.071
X236.518Y-98.101
X236.528Y-81.073
X236.533Y-64.071
X243.518Y-110.151
X243.523Y-76.138
X243.538Y-93.141
X254.518Y-110.151
X254.523Y-76.138
X254.538Y-93.141
T3
X41.259Y-76.163
X41.269Y-93.153
X41.274Y-110.153
X59.254Y-64.113
X59.274Y-81.123
X59.274Y-98.123
X77.254Y-58.033
X77.264Y-75.043
X77.274Y-92.053
X88.499Y-122.753
X95.274Y-64.523
X95.274Y-81.523
X95.284Y-98.223
X108.477Y-125.567
X113.274Y-66.703
X113.274Y-83.693
X113.274Y-100.693
X126.84Y-133.353
X131.274Y-88.789
X131.274Y-105.779
X158.988Y-105.291
X159.003Y-88.291
X163.472Y-133.353
X176.998Y-100.721
X177.001Y-83.721
X177.008Y-66.711
X181.831Y-125.547
X195.008Y-81.521
X195.008Y-64.521
X195.008Y-98.513
X201.788Y-122.761
X212.998Y-92.031
X213.008Y-58.021
X213.028Y-75.041
X231.018Y-98.101
X231.028Y-81.073
X231.033Y-64.071
X249.018Y-110.151
X249.023Y-76.138
X249.038Y-93.141
M30
