%TF.GenerationSoftware,KiCad,Pcbnew,9.0.6*%
%TF.CreationDate,2026-01-07T23:40:19+05:30*%
%TF.ProjectId,Splitty,53706c69-7474-4792-9e6b-696361645f70,rev?*%
%TF.SameCoordinates,Original*%
%TF.FileFunction,Soldermask,Bot*%
%TF.FilePolarity,Negative*%
%FSLAX46Y46*%
G04 Gerber Fmt 4.6, Leading zero omitted, Abs format (unit mm)*
G04 Created by KiCad (PCBNEW 9.0.6) date 2026-01-07 23:40:19*
%MOMM*%
%LPD*%
G01*
G04 APERTURE LIST*
G04 Aperture macros list*
%AMRoundRect*
0 Rectangle with rounded corners*
0 $1 Rounding radius*
0 $2 $3 $4 $5 $6 $7 $8 $9 X,Y pos of 4 corners*
0 Add a 4 corners polygon primitive as box body*
4,1,4,$2,$3,$4,$5,$6,$7,$8,$9,$2,$3,0*
0 Add four circle primitives for the rounded corners*
1,1,$1+$1,$2,$3*
1,1,$1+$1,$4,$5*
1,1,$1+$1,$6,$7*
1,1,$1+$1,$8,$9*
0 Add four rect primitives between the rounded corners*
20,1,$1+$1,$2,$3,$4,$5,0*
20,1,$1+$1,$4,$5,$6,$7,0*
20,1,$1+$1,$6,$7,$8,$9,0*
20,1,$1+$1,$8,$9,$2,$3,0*%
G04 Aperture macros list end*
%ADD10C,1.700000*%
%ADD11C,3.400000*%
%ADD12RoundRect,0.225000X-0.375000X0.225000X-0.375000X-0.225000X0.375000X-0.225000X0.375000X0.225000X0*%
%ADD13RoundRect,0.225000X-0.422492X0.112920X-0.298455X-0.319648X0.422492X-0.112920X0.298455X0.319648X0*%
%ADD14RoundRect,0.525400X0.900400X0.525400X-0.900400X0.525400X-0.900400X-0.525400X0.900400X-0.525400X0*%
%ADD15RoundRect,0.775400X-0.775400X-0.775400X0.775400X-0.775400X0.775400X0.775400X-0.775400X0.775400X0*%
%ADD16RoundRect,0.300400X-0.300400X1.000400X-0.300400X-1.000400X0.300400X-1.000400X0.300400X1.000400X0*%
%ADD17RoundRect,0.225000X-0.382356X-0.212260X0.007356X-0.437260X0.382356X0.212260X-0.007356X0.437260X0*%
%ADD18C,0.500000*%
%ADD19RoundRect,0.225000X-0.319648X-0.298455X0.112920X-0.422492X0.319648X0.298455X-0.112920X0.422492X0*%
%ADD20RoundRect,0.225000X-0.225000X-0.375000X0.225000X-0.375000X0.225000X0.375000X-0.225000X0.375000X0*%
%ADD21RoundRect,0.225000X0.007356X0.437260X-0.382356X0.212260X-0.007356X-0.437260X0.382356X-0.212260X0*%
G04 APERTURE END LIST*
D10*
%TO.C,SW31*%
X225527520Y-81073362D03*
D11*
X231027520Y-81073362D03*
D10*
X236527520Y-81073362D03*
%TD*%
D12*
%TO.C,D18*%
X140813574Y-85592735D03*
X140813574Y-88892735D03*
%TD*%
%TO.C,D8*%
X222017520Y-65580862D03*
X222017520Y-68880862D03*
%TD*%
D10*
%TO.C,SW2*%
X207507592Y-58020862D03*
D11*
X213007592Y-58020862D03*
D10*
X218507592Y-58020862D03*
%TD*%
%TO.C,SW47*%
X153487520Y-105290862D03*
D11*
X158987520Y-105290862D03*
D10*
X164487520Y-105290862D03*
%TD*%
%TO.C,SW29*%
X218527520Y-75040862D03*
D11*
X213027520Y-75040862D03*
D10*
X207527520Y-75040862D03*
%TD*%
D12*
%TO.C,D29*%
X193277520Y-113960862D03*
X193277520Y-117260862D03*
%TD*%
D10*
%TO.C,SW24*%
X107773574Y-100692735D03*
D11*
X113273574Y-100692735D03*
D10*
X118773574Y-100692735D03*
%TD*%
D12*
%TO.C,D24*%
X222017520Y-83280862D03*
X222017520Y-86580862D03*
%TD*%
D13*
%TO.C,D32*%
X171212719Y-119434780D03*
X172122321Y-122606944D03*
%TD*%
D12*
%TO.C,D31*%
X240027520Y-95990862D03*
X240027520Y-99290862D03*
%TD*%
%TO.C,D15*%
X167987520Y-102890862D03*
X167987520Y-106190862D03*
%TD*%
D10*
%TO.C,SW26*%
X196287520Y-122760862D03*
D11*
X201787520Y-122760862D03*
D10*
X207287520Y-122760862D03*
%TD*%
%TO.C,SW3*%
X71753574Y-58032735D03*
D11*
X77253574Y-58032735D03*
D10*
X82753574Y-58032735D03*
%TD*%
%TO.C,SW15*%
X171497592Y-100720862D03*
D11*
X176997592Y-100720862D03*
D10*
X182497592Y-100720862D03*
%TD*%
D14*
%TO.C,U2*%
X165447520Y-61060862D03*
X165447520Y-63600862D03*
X165447520Y-66140862D03*
X165447520Y-68680862D03*
X165447520Y-71220862D03*
X165447520Y-73760862D03*
X165447520Y-76300862D03*
X149282520Y-76300862D03*
X149282520Y-73760862D03*
X149282520Y-71220862D03*
X149282520Y-68680862D03*
X149282520Y-66140862D03*
X149282520Y-63600862D03*
X149282520Y-61060862D03*
D15*
X161837520Y-69080862D03*
X161837520Y-65680862D03*
D16*
X153582520Y-77917762D03*
X151677520Y-77917762D03*
D10*
X158662520Y-60112362D03*
X156122520Y-60112362D03*
X158662520Y-62652362D03*
X156122520Y-62652362D03*
%TD*%
D12*
%TO.C,D16*%
X185997520Y-101003362D03*
X185997520Y-104303362D03*
%TD*%
%TO.C,D42*%
X104300000Y-61138362D03*
X104300000Y-64438362D03*
%TD*%
%TO.C,D3*%
X86263574Y-64775235D03*
X86263574Y-68075235D03*
%TD*%
%TO.C,D17*%
X68243574Y-94502735D03*
X68243574Y-97802735D03*
%TD*%
D10*
%TO.C,SW48*%
X153502520Y-88290862D03*
D11*
X159002520Y-88290862D03*
D10*
X164502520Y-88290862D03*
%TD*%
%TO.C,SW11*%
X71763574Y-75042735D03*
D11*
X77263574Y-75042735D03*
D10*
X82763574Y-75042735D03*
%TD*%
%TO.C,SW19*%
X125773574Y-88789435D03*
D11*
X131273574Y-88789435D03*
D10*
X136773574Y-88789435D03*
%TD*%
%TO.C,SW25*%
X189507520Y-81520862D03*
D11*
X195007520Y-81520862D03*
D10*
X200507520Y-81520862D03*
%TD*%
D12*
%TO.C,D10*%
X122263574Y-80672735D03*
X122263574Y-83972735D03*
%TD*%
D10*
%TO.C,SW14*%
X225517592Y-98100862D03*
D11*
X231017592Y-98100862D03*
D10*
X236517592Y-98100862D03*
%TD*%
%TO.C,SW4*%
X171507520Y-66710862D03*
D11*
X177007520Y-66710862D03*
D10*
X182507520Y-66710862D03*
%TD*%
%TO.C,SW5*%
X89773574Y-81522735D03*
D11*
X95273574Y-81522735D03*
D10*
X100773574Y-81522735D03*
%TD*%
%TO.C,SW12*%
X89783574Y-98222735D03*
D11*
X95283574Y-98222735D03*
D10*
X100783574Y-98222735D03*
%TD*%
%TO.C,SW44*%
X35758574Y-76162735D03*
D11*
X41258574Y-76162735D03*
D10*
X46758574Y-76162735D03*
%TD*%
D12*
%TO.C,D9*%
X50263574Y-85442735D03*
X50263574Y-88742735D03*
%TD*%
D10*
%TO.C,SW23*%
X122077294Y-130602735D03*
D11*
X126840434Y-133352735D03*
D10*
X131603574Y-136102735D03*
%TD*%
%TO.C,SW41*%
X89773574Y-64522735D03*
D11*
X95273574Y-64522735D03*
D10*
X100773574Y-64522735D03*
%TD*%
%TO.C,SW8*%
X225532520Y-64070862D03*
D11*
X231032520Y-64070862D03*
D10*
X236532520Y-64070862D03*
%TD*%
D12*
%TO.C,D47*%
X149957520Y-107260862D03*
X149957520Y-110560862D03*
%TD*%
%TO.C,D12*%
X104263574Y-94565235D03*
X104263574Y-97865235D03*
%TD*%
%TO.C,D28*%
X122243574Y-96982735D03*
X122243574Y-100282735D03*
%TD*%
%TO.C,D11*%
X86273574Y-69755235D03*
X86273574Y-73055235D03*
%TD*%
%TO.C,D7*%
X240017520Y-78070862D03*
X240017520Y-81370862D03*
%TD*%
D17*
%TO.C,D20*%
X125334632Y-121467735D03*
X128192516Y-123117735D03*
%TD*%
D12*
%TO.C,D46*%
X186007520Y-62193362D03*
X186007520Y-65493362D03*
%TD*%
D10*
%TO.C,SW42*%
X107773574Y-66702735D03*
D11*
X113273574Y-66702735D03*
D10*
X118773574Y-66702735D03*
%TD*%
D18*
%TO.C,H2*%
X144408000Y-95410325D03*
X145908000Y-95410325D03*
X144408000Y-94660325D03*
X145908000Y-94660325D03*
X144408000Y-93910325D03*
X145908000Y-93910325D03*
%TD*%
D10*
%TO.C,SW46*%
X189507592Y-64520862D03*
D11*
X195007592Y-64520862D03*
D10*
X200507592Y-64520862D03*
%TD*%
%TO.C,SW20*%
X125773574Y-105779435D03*
D11*
X131273574Y-105779435D03*
D10*
X136773574Y-105779435D03*
%TD*%
%TO.C,SW30*%
X243537520Y-93140862D03*
D11*
X249037520Y-93140862D03*
D10*
X254537520Y-93140862D03*
%TD*%
%TO.C,SW49*%
X158709253Y-136103267D03*
D11*
X163472393Y-133353267D03*
D10*
X168235533Y-130603267D03*
%TD*%
%TO.C,SW1*%
X71773574Y-92052735D03*
D11*
X77273574Y-92052735D03*
D10*
X82773574Y-92052735D03*
%TD*%
%TO.C,SW16*%
X189507592Y-98513362D03*
D11*
X195007592Y-98513362D03*
D10*
X200507592Y-98513362D03*
%TD*%
D12*
%TO.C,D2*%
X204007520Y-59583362D03*
X204007520Y-62883362D03*
%TD*%
D19*
%TO.C,D27*%
X116247492Y-117887933D03*
X119419656Y-118797537D03*
%TD*%
D20*
%TO.C,D30*%
X241107520Y-101640862D03*
X244407520Y-101640862D03*
%TD*%
D12*
%TO.C,D25*%
X98013574Y-118825235D03*
X98013574Y-122125235D03*
%TD*%
%TO.C,D44*%
X50283574Y-71422735D03*
X50283574Y-74722735D03*
%TD*%
%TO.C,D5*%
X104263574Y-78992735D03*
X104263574Y-82292735D03*
%TD*%
%TO.C,D13*%
X204007448Y-94853362D03*
X204007448Y-98153362D03*
%TD*%
D10*
%TO.C,SW22*%
X103189696Y-124050725D03*
D11*
X108476635Y-125566730D03*
D10*
X113763574Y-127082735D03*
%TD*%
%TO.C,SW13*%
X207497520Y-92030862D03*
D11*
X212997520Y-92030862D03*
D10*
X218497520Y-92030862D03*
%TD*%
%TO.C,SW7*%
X243522520Y-76138362D03*
D11*
X249022520Y-76138362D03*
D10*
X254522520Y-76138362D03*
%TD*%
%TO.C,SW21*%
X53773574Y-81122735D03*
D11*
X59273574Y-81122735D03*
D10*
X64773574Y-81122735D03*
%TD*%
%TO.C,SW27*%
X171500660Y-83720862D03*
D11*
X177000660Y-83720862D03*
D10*
X182500660Y-83720862D03*
%TD*%
%TO.C,SW10*%
X107773574Y-83692735D03*
D11*
X113273574Y-83692735D03*
D10*
X118773574Y-83692735D03*
%TD*%
D12*
%TO.C,D4*%
X168540000Y-69250862D03*
X168540000Y-72550862D03*
%TD*%
%TO.C,D22*%
X168007520Y-85850862D03*
X168007520Y-89150862D03*
%TD*%
%TO.C,D43*%
X68243574Y-60282735D03*
X68243574Y-63582735D03*
%TD*%
%TO.C,D6*%
X50273574Y-102282735D03*
X50273574Y-105582735D03*
%TD*%
%TO.C,D26*%
X140813574Y-100822735D03*
X140813574Y-104122735D03*
%TD*%
D10*
%TO.C,SW17*%
X53773574Y-98122735D03*
D11*
X59273574Y-98122735D03*
D10*
X64773574Y-98122735D03*
%TD*%
D12*
%TO.C,D19*%
X68243574Y-75992735D03*
X68243574Y-79292735D03*
%TD*%
%TO.C,D14*%
X222037520Y-101830862D03*
X222037520Y-105130862D03*
%TD*%
%TO.C,D48*%
X149982520Y-90970862D03*
X149982520Y-94270862D03*
%TD*%
%TO.C,D21*%
X186017520Y-81590862D03*
X186017520Y-84890862D03*
%TD*%
D14*
%TO.C,U1*%
X141138074Y-61061235D03*
X141138074Y-63601235D03*
X141138074Y-66141235D03*
X141138074Y-68681235D03*
X141138074Y-71221235D03*
X141138074Y-73761235D03*
X141138074Y-76301235D03*
X124973074Y-76301235D03*
X124973074Y-73761235D03*
X124973074Y-71221235D03*
X124973074Y-68681235D03*
X124973074Y-66141235D03*
X124973074Y-63601235D03*
X124973074Y-61061235D03*
D15*
X137528074Y-69081235D03*
X137528074Y-65681235D03*
D16*
X129273074Y-77918135D03*
X127368074Y-77918135D03*
D10*
X134353074Y-60112735D03*
X131813074Y-60112735D03*
X134353074Y-62652735D03*
X131813074Y-62652735D03*
%TD*%
D12*
%TO.C,D41*%
X104263574Y-71415235D03*
X104263574Y-74715235D03*
%TD*%
D18*
%TO.C,H4*%
X144368000Y-66908625D03*
X145868000Y-66908625D03*
X144368000Y-66158625D03*
X145868000Y-66158625D03*
X144368000Y-65408625D03*
X145868000Y-65408625D03*
%TD*%
D10*
%TO.C,SW6*%
X35773574Y-110152735D03*
D11*
X41273574Y-110152735D03*
D10*
X46773574Y-110152735D03*
%TD*%
%TO.C,SW9*%
X35768574Y-93152735D03*
D11*
X41268574Y-93152735D03*
D10*
X46768574Y-93152735D03*
%TD*%
%TO.C,SW32*%
X176543640Y-127062874D03*
D11*
X181830580Y-125546868D03*
D10*
X187117520Y-124030862D03*
%TD*%
%TO.C,SW28*%
X243517520Y-110150862D03*
D11*
X249017520Y-110150862D03*
D10*
X254517520Y-110150862D03*
%TD*%
%TO.C,SW43*%
X53753574Y-64112735D03*
D11*
X59253574Y-64112735D03*
D10*
X64753574Y-64112735D03*
%TD*%
D12*
%TO.C,D23*%
X204017520Y-76670862D03*
X204017520Y-79970862D03*
%TD*%
D21*
%TO.C,D49*%
X157697520Y-126870862D03*
X154839636Y-128520862D03*
%TD*%
D10*
%TO.C,SW18*%
X82998574Y-122752735D03*
D11*
X88498574Y-122752735D03*
D10*
X93998574Y-122752735D03*
%TD*%
D12*
%TO.C,D1*%
X86293574Y-88395235D03*
X86293574Y-91695235D03*
%TD*%
M02*
