%TF.GenerationSoftware,KiCad,Pcbnew,9.0.6*%
%TF.CreationDate,2026-01-07T23:40:19+05:30*%
%TF.ProjectId,Splitty,53706c69-7474-4792-9e6b-696361645f70,rev?*%
%TF.SameCoordinates,Original*%
%TF.FileFunction,Legend,Bot*%
%TF.FilePolarity,Positive*%
%FSLAX46Y46*%
G04 Gerber Fmt 4.6, Leading zero omitted, Abs format (unit mm)*
G04 Created by KiCad (PCBNEW 9.0.6) date 2026-01-07 23:40:19*
%MOMM*%
%LPD*%
G01*
G04 APERTURE LIST*
%ADD10C,0.150000*%
%ADD11C,0.106680*%
%ADD12C,0.120000*%
%ADD13C,0.100000*%
%ADD14C,0.127000*%
%ADD15C,0.504000*%
G04 APERTURE END LIST*
D10*
X139268393Y-86028449D02*
X138268393Y-86028449D01*
X138268393Y-86028449D02*
X138268393Y-86266544D01*
X138268393Y-86266544D02*
X138316012Y-86409401D01*
X138316012Y-86409401D02*
X138411250Y-86504639D01*
X138411250Y-86504639D02*
X138506488Y-86552258D01*
X138506488Y-86552258D02*
X138696964Y-86599877D01*
X138696964Y-86599877D02*
X138839821Y-86599877D01*
X138839821Y-86599877D02*
X139030297Y-86552258D01*
X139030297Y-86552258D02*
X139125535Y-86504639D01*
X139125535Y-86504639D02*
X139220774Y-86409401D01*
X139220774Y-86409401D02*
X139268393Y-86266544D01*
X139268393Y-86266544D02*
X139268393Y-86028449D01*
X139268393Y-87552258D02*
X139268393Y-86980830D01*
X139268393Y-87266544D02*
X138268393Y-87266544D01*
X138268393Y-87266544D02*
X138411250Y-87171306D01*
X138411250Y-87171306D02*
X138506488Y-87076068D01*
X138506488Y-87076068D02*
X138554107Y-86980830D01*
X138696964Y-88123687D02*
X138649345Y-88028449D01*
X138649345Y-88028449D02*
X138601726Y-87980830D01*
X138601726Y-87980830D02*
X138506488Y-87933211D01*
X138506488Y-87933211D02*
X138458869Y-87933211D01*
X138458869Y-87933211D02*
X138363631Y-87980830D01*
X138363631Y-87980830D02*
X138316012Y-88028449D01*
X138316012Y-88028449D02*
X138268393Y-88123687D01*
X138268393Y-88123687D02*
X138268393Y-88314163D01*
X138268393Y-88314163D02*
X138316012Y-88409401D01*
X138316012Y-88409401D02*
X138363631Y-88457020D01*
X138363631Y-88457020D02*
X138458869Y-88504639D01*
X138458869Y-88504639D02*
X138506488Y-88504639D01*
X138506488Y-88504639D02*
X138601726Y-88457020D01*
X138601726Y-88457020D02*
X138649345Y-88409401D01*
X138649345Y-88409401D02*
X138696964Y-88314163D01*
X138696964Y-88314163D02*
X138696964Y-88123687D01*
X138696964Y-88123687D02*
X138744583Y-88028449D01*
X138744583Y-88028449D02*
X138792202Y-87980830D01*
X138792202Y-87980830D02*
X138887440Y-87933211D01*
X138887440Y-87933211D02*
X139077916Y-87933211D01*
X139077916Y-87933211D02*
X139173154Y-87980830D01*
X139173154Y-87980830D02*
X139220774Y-88028449D01*
X139220774Y-88028449D02*
X139268393Y-88123687D01*
X139268393Y-88123687D02*
X139268393Y-88314163D01*
X139268393Y-88314163D02*
X139220774Y-88409401D01*
X139220774Y-88409401D02*
X139173154Y-88457020D01*
X139173154Y-88457020D02*
X139077916Y-88504639D01*
X139077916Y-88504639D02*
X138887440Y-88504639D01*
X138887440Y-88504639D02*
X138792202Y-88457020D01*
X138792202Y-88457020D02*
X138744583Y-88409401D01*
X138744583Y-88409401D02*
X138696964Y-88314163D01*
X220472339Y-66492767D02*
X219472339Y-66492767D01*
X219472339Y-66492767D02*
X219472339Y-66730862D01*
X219472339Y-66730862D02*
X219519958Y-66873719D01*
X219519958Y-66873719D02*
X219615196Y-66968957D01*
X219615196Y-66968957D02*
X219710434Y-67016576D01*
X219710434Y-67016576D02*
X219900910Y-67064195D01*
X219900910Y-67064195D02*
X220043767Y-67064195D01*
X220043767Y-67064195D02*
X220234243Y-67016576D01*
X220234243Y-67016576D02*
X220329481Y-66968957D01*
X220329481Y-66968957D02*
X220424720Y-66873719D01*
X220424720Y-66873719D02*
X220472339Y-66730862D01*
X220472339Y-66730862D02*
X220472339Y-66492767D01*
X219900910Y-67635624D02*
X219853291Y-67540386D01*
X219853291Y-67540386D02*
X219805672Y-67492767D01*
X219805672Y-67492767D02*
X219710434Y-67445148D01*
X219710434Y-67445148D02*
X219662815Y-67445148D01*
X219662815Y-67445148D02*
X219567577Y-67492767D01*
X219567577Y-67492767D02*
X219519958Y-67540386D01*
X219519958Y-67540386D02*
X219472339Y-67635624D01*
X219472339Y-67635624D02*
X219472339Y-67826100D01*
X219472339Y-67826100D02*
X219519958Y-67921338D01*
X219519958Y-67921338D02*
X219567577Y-67968957D01*
X219567577Y-67968957D02*
X219662815Y-68016576D01*
X219662815Y-68016576D02*
X219710434Y-68016576D01*
X219710434Y-68016576D02*
X219805672Y-67968957D01*
X219805672Y-67968957D02*
X219853291Y-67921338D01*
X219853291Y-67921338D02*
X219900910Y-67826100D01*
X219900910Y-67826100D02*
X219900910Y-67635624D01*
X219900910Y-67635624D02*
X219948529Y-67540386D01*
X219948529Y-67540386D02*
X219996148Y-67492767D01*
X219996148Y-67492767D02*
X220091386Y-67445148D01*
X220091386Y-67445148D02*
X220281862Y-67445148D01*
X220281862Y-67445148D02*
X220377100Y-67492767D01*
X220377100Y-67492767D02*
X220424720Y-67540386D01*
X220424720Y-67540386D02*
X220472339Y-67635624D01*
X220472339Y-67635624D02*
X220472339Y-67826100D01*
X220472339Y-67826100D02*
X220424720Y-67921338D01*
X220424720Y-67921338D02*
X220377100Y-67968957D01*
X220377100Y-67968957D02*
X220281862Y-68016576D01*
X220281862Y-68016576D02*
X220091386Y-68016576D01*
X220091386Y-68016576D02*
X219996148Y-67968957D01*
X219996148Y-67968957D02*
X219948529Y-67921338D01*
X219948529Y-67921338D02*
X219900910Y-67826100D01*
X191732339Y-114396576D02*
X190732339Y-114396576D01*
X190732339Y-114396576D02*
X190732339Y-114634671D01*
X190732339Y-114634671D02*
X190779958Y-114777528D01*
X190779958Y-114777528D02*
X190875196Y-114872766D01*
X190875196Y-114872766D02*
X190970434Y-114920385D01*
X190970434Y-114920385D02*
X191160910Y-114968004D01*
X191160910Y-114968004D02*
X191303767Y-114968004D01*
X191303767Y-114968004D02*
X191494243Y-114920385D01*
X191494243Y-114920385D02*
X191589481Y-114872766D01*
X191589481Y-114872766D02*
X191684720Y-114777528D01*
X191684720Y-114777528D02*
X191732339Y-114634671D01*
X191732339Y-114634671D02*
X191732339Y-114396576D01*
X190827577Y-115348957D02*
X190779958Y-115396576D01*
X190779958Y-115396576D02*
X190732339Y-115491814D01*
X190732339Y-115491814D02*
X190732339Y-115729909D01*
X190732339Y-115729909D02*
X190779958Y-115825147D01*
X190779958Y-115825147D02*
X190827577Y-115872766D01*
X190827577Y-115872766D02*
X190922815Y-115920385D01*
X190922815Y-115920385D02*
X191018053Y-115920385D01*
X191018053Y-115920385D02*
X191160910Y-115872766D01*
X191160910Y-115872766D02*
X191732339Y-115301338D01*
X191732339Y-115301338D02*
X191732339Y-115920385D01*
X191732339Y-116396576D02*
X191732339Y-116587052D01*
X191732339Y-116587052D02*
X191684720Y-116682290D01*
X191684720Y-116682290D02*
X191637100Y-116729909D01*
X191637100Y-116729909D02*
X191494243Y-116825147D01*
X191494243Y-116825147D02*
X191303767Y-116872766D01*
X191303767Y-116872766D02*
X190922815Y-116872766D01*
X190922815Y-116872766D02*
X190827577Y-116825147D01*
X190827577Y-116825147D02*
X190779958Y-116777528D01*
X190779958Y-116777528D02*
X190732339Y-116682290D01*
X190732339Y-116682290D02*
X190732339Y-116491814D01*
X190732339Y-116491814D02*
X190779958Y-116396576D01*
X190779958Y-116396576D02*
X190827577Y-116348957D01*
X190827577Y-116348957D02*
X190922815Y-116301338D01*
X190922815Y-116301338D02*
X191160910Y-116301338D01*
X191160910Y-116301338D02*
X191256148Y-116348957D01*
X191256148Y-116348957D02*
X191303767Y-116396576D01*
X191303767Y-116396576D02*
X191351386Y-116491814D01*
X191351386Y-116491814D02*
X191351386Y-116682290D01*
X191351386Y-116682290D02*
X191303767Y-116777528D01*
X191303767Y-116777528D02*
X191256148Y-116825147D01*
X191256148Y-116825147D02*
X191160910Y-116872766D01*
X220472339Y-83716576D02*
X219472339Y-83716576D01*
X219472339Y-83716576D02*
X219472339Y-83954671D01*
X219472339Y-83954671D02*
X219519958Y-84097528D01*
X219519958Y-84097528D02*
X219615196Y-84192766D01*
X219615196Y-84192766D02*
X219710434Y-84240385D01*
X219710434Y-84240385D02*
X219900910Y-84288004D01*
X219900910Y-84288004D02*
X220043767Y-84288004D01*
X220043767Y-84288004D02*
X220234243Y-84240385D01*
X220234243Y-84240385D02*
X220329481Y-84192766D01*
X220329481Y-84192766D02*
X220424720Y-84097528D01*
X220424720Y-84097528D02*
X220472339Y-83954671D01*
X220472339Y-83954671D02*
X220472339Y-83716576D01*
X219567577Y-84668957D02*
X219519958Y-84716576D01*
X219519958Y-84716576D02*
X219472339Y-84811814D01*
X219472339Y-84811814D02*
X219472339Y-85049909D01*
X219472339Y-85049909D02*
X219519958Y-85145147D01*
X219519958Y-85145147D02*
X219567577Y-85192766D01*
X219567577Y-85192766D02*
X219662815Y-85240385D01*
X219662815Y-85240385D02*
X219758053Y-85240385D01*
X219758053Y-85240385D02*
X219900910Y-85192766D01*
X219900910Y-85192766D02*
X220472339Y-84621338D01*
X220472339Y-84621338D02*
X220472339Y-85240385D01*
X219805672Y-86097528D02*
X220472339Y-86097528D01*
X219424720Y-85859433D02*
X220139005Y-85621338D01*
X220139005Y-85621338D02*
X220139005Y-86240385D01*
X169642499Y-122864746D02*
X170603761Y-122589109D01*
X170603761Y-122589109D02*
X170538133Y-122360237D01*
X170538133Y-122360237D02*
X170452982Y-122236039D01*
X170452982Y-122236039D02*
X170335182Y-122170742D01*
X170335182Y-122170742D02*
X170230507Y-122151219D01*
X170230507Y-122151219D02*
X170034284Y-122157947D01*
X170034284Y-122157947D02*
X169896961Y-122197323D01*
X169896961Y-122197323D02*
X169726989Y-122295600D01*
X169726989Y-122295600D02*
X169648566Y-122367626D01*
X169648566Y-122367626D02*
X169583269Y-122485425D01*
X169583269Y-122485425D02*
X169576871Y-122635874D01*
X169576871Y-122635874D02*
X169642499Y-122864746D01*
X170354374Y-121719396D02*
X170183742Y-121124329D01*
X170183742Y-121124329D02*
X169909426Y-121549754D01*
X169909426Y-121549754D02*
X169870049Y-121412431D01*
X169870049Y-121412431D02*
X169798024Y-121334008D01*
X169798024Y-121334008D02*
X169739124Y-121301359D01*
X169739124Y-121301359D02*
X169634449Y-121281836D01*
X169634449Y-121281836D02*
X169405578Y-121347464D01*
X169405578Y-121347464D02*
X169327154Y-121419489D01*
X169327154Y-121419489D02*
X169294506Y-121478389D01*
X169294506Y-121478389D02*
X169274982Y-121583064D01*
X169274982Y-121583064D02*
X169353736Y-121857710D01*
X169353736Y-121857710D02*
X169425761Y-121936133D01*
X169425761Y-121936133D02*
X169484661Y-121968782D01*
X169987188Y-120784385D02*
X170019837Y-120725485D01*
X170019837Y-120725485D02*
X170039360Y-120620811D01*
X170039360Y-120620811D02*
X169973732Y-120391939D01*
X169973732Y-120391939D02*
X169901707Y-120313516D01*
X169901707Y-120313516D02*
X169842807Y-120280867D01*
X169842807Y-120280867D02*
X169738133Y-120261344D01*
X169738133Y-120261344D02*
X169646584Y-120287595D01*
X169646584Y-120287595D02*
X169522386Y-120372746D01*
X169522386Y-120372746D02*
X169130601Y-121079546D01*
X169130601Y-121079546D02*
X168959968Y-120484479D01*
X238482339Y-96426576D02*
X237482339Y-96426576D01*
X237482339Y-96426576D02*
X237482339Y-96664671D01*
X237482339Y-96664671D02*
X237529958Y-96807528D01*
X237529958Y-96807528D02*
X237625196Y-96902766D01*
X237625196Y-96902766D02*
X237720434Y-96950385D01*
X237720434Y-96950385D02*
X237910910Y-96998004D01*
X237910910Y-96998004D02*
X238053767Y-96998004D01*
X238053767Y-96998004D02*
X238244243Y-96950385D01*
X238244243Y-96950385D02*
X238339481Y-96902766D01*
X238339481Y-96902766D02*
X238434720Y-96807528D01*
X238434720Y-96807528D02*
X238482339Y-96664671D01*
X238482339Y-96664671D02*
X238482339Y-96426576D01*
X237482339Y-97331338D02*
X237482339Y-97950385D01*
X237482339Y-97950385D02*
X237863291Y-97617052D01*
X237863291Y-97617052D02*
X237863291Y-97759909D01*
X237863291Y-97759909D02*
X237910910Y-97855147D01*
X237910910Y-97855147D02*
X237958529Y-97902766D01*
X237958529Y-97902766D02*
X238053767Y-97950385D01*
X238053767Y-97950385D02*
X238291862Y-97950385D01*
X238291862Y-97950385D02*
X238387100Y-97902766D01*
X238387100Y-97902766D02*
X238434720Y-97855147D01*
X238434720Y-97855147D02*
X238482339Y-97759909D01*
X238482339Y-97759909D02*
X238482339Y-97474195D01*
X238482339Y-97474195D02*
X238434720Y-97378957D01*
X238434720Y-97378957D02*
X238387100Y-97331338D01*
X238482339Y-98902766D02*
X238482339Y-98331338D01*
X238482339Y-98617052D02*
X237482339Y-98617052D01*
X237482339Y-98617052D02*
X237625196Y-98521814D01*
X237625196Y-98521814D02*
X237720434Y-98426576D01*
X237720434Y-98426576D02*
X237768053Y-98331338D01*
X166442339Y-103326576D02*
X165442339Y-103326576D01*
X165442339Y-103326576D02*
X165442339Y-103564671D01*
X165442339Y-103564671D02*
X165489958Y-103707528D01*
X165489958Y-103707528D02*
X165585196Y-103802766D01*
X165585196Y-103802766D02*
X165680434Y-103850385D01*
X165680434Y-103850385D02*
X165870910Y-103898004D01*
X165870910Y-103898004D02*
X166013767Y-103898004D01*
X166013767Y-103898004D02*
X166204243Y-103850385D01*
X166204243Y-103850385D02*
X166299481Y-103802766D01*
X166299481Y-103802766D02*
X166394720Y-103707528D01*
X166394720Y-103707528D02*
X166442339Y-103564671D01*
X166442339Y-103564671D02*
X166442339Y-103326576D01*
X166442339Y-104850385D02*
X166442339Y-104278957D01*
X166442339Y-104564671D02*
X165442339Y-104564671D01*
X165442339Y-104564671D02*
X165585196Y-104469433D01*
X165585196Y-104469433D02*
X165680434Y-104374195D01*
X165680434Y-104374195D02*
X165728053Y-104278957D01*
X165442339Y-105755147D02*
X165442339Y-105278957D01*
X165442339Y-105278957D02*
X165918529Y-105231338D01*
X165918529Y-105231338D02*
X165870910Y-105278957D01*
X165870910Y-105278957D02*
X165823291Y-105374195D01*
X165823291Y-105374195D02*
X165823291Y-105612290D01*
X165823291Y-105612290D02*
X165870910Y-105707528D01*
X165870910Y-105707528D02*
X165918529Y-105755147D01*
X165918529Y-105755147D02*
X166013767Y-105802766D01*
X166013767Y-105802766D02*
X166251862Y-105802766D01*
X166251862Y-105802766D02*
X166347100Y-105755147D01*
X166347100Y-105755147D02*
X166394720Y-105707528D01*
X166394720Y-105707528D02*
X166442339Y-105612290D01*
X166442339Y-105612290D02*
X166442339Y-105374195D01*
X166442339Y-105374195D02*
X166394720Y-105278957D01*
X166394720Y-105278957D02*
X166347100Y-105231338D01*
X131183393Y-116550830D02*
X131183393Y-117122258D01*
X132183393Y-116836544D02*
X131183393Y-116836544D01*
X132183393Y-117455592D02*
X131183393Y-117455592D01*
X131183393Y-117455592D02*
X131183393Y-117836544D01*
X131183393Y-117836544D02*
X131231012Y-117931782D01*
X131231012Y-117931782D02*
X131278631Y-117979401D01*
X131278631Y-117979401D02*
X131373869Y-118027020D01*
X131373869Y-118027020D02*
X131516726Y-118027020D01*
X131516726Y-118027020D02*
X131611964Y-117979401D01*
X131611964Y-117979401D02*
X131659583Y-117931782D01*
X131659583Y-117931782D02*
X131707202Y-117836544D01*
X131707202Y-117836544D02*
X131707202Y-117455592D01*
X132183393Y-118979401D02*
X132183393Y-118407973D01*
X132183393Y-118693687D02*
X131183393Y-118693687D01*
X131183393Y-118693687D02*
X131326250Y-118598449D01*
X131326250Y-118598449D02*
X131421488Y-118503211D01*
X131421488Y-118503211D02*
X131469107Y-118407973D01*
D11*
X166526069Y-56297253D02*
X166526069Y-56930560D01*
X166526069Y-56930560D02*
X166488816Y-57005066D01*
X166488816Y-57005066D02*
X166451562Y-57042320D01*
X166451562Y-57042320D02*
X166377056Y-57079573D01*
X166377056Y-57079573D02*
X166228042Y-57079573D01*
X166228042Y-57079573D02*
X166153536Y-57042320D01*
X166153536Y-57042320D02*
X166116282Y-57005066D01*
X166116282Y-57005066D02*
X166079029Y-56930560D01*
X166079029Y-56930560D02*
X166079029Y-56297253D01*
X165743749Y-56371760D02*
X165706496Y-56334506D01*
X165706496Y-56334506D02*
X165631989Y-56297253D01*
X165631989Y-56297253D02*
X165445723Y-56297253D01*
X165445723Y-56297253D02*
X165371216Y-56334506D01*
X165371216Y-56334506D02*
X165333963Y-56371760D01*
X165333963Y-56371760D02*
X165296709Y-56446266D01*
X165296709Y-56446266D02*
X165296709Y-56520773D01*
X165296709Y-56520773D02*
X165333963Y-56632533D01*
X165333963Y-56632533D02*
X165781003Y-57079573D01*
X165781003Y-57079573D02*
X165296709Y-57079573D01*
D10*
X184452339Y-101439076D02*
X183452339Y-101439076D01*
X183452339Y-101439076D02*
X183452339Y-101677171D01*
X183452339Y-101677171D02*
X183499958Y-101820028D01*
X183499958Y-101820028D02*
X183595196Y-101915266D01*
X183595196Y-101915266D02*
X183690434Y-101962885D01*
X183690434Y-101962885D02*
X183880910Y-102010504D01*
X183880910Y-102010504D02*
X184023767Y-102010504D01*
X184023767Y-102010504D02*
X184214243Y-101962885D01*
X184214243Y-101962885D02*
X184309481Y-101915266D01*
X184309481Y-101915266D02*
X184404720Y-101820028D01*
X184404720Y-101820028D02*
X184452339Y-101677171D01*
X184452339Y-101677171D02*
X184452339Y-101439076D01*
X184452339Y-102962885D02*
X184452339Y-102391457D01*
X184452339Y-102677171D02*
X183452339Y-102677171D01*
X183452339Y-102677171D02*
X183595196Y-102581933D01*
X183595196Y-102581933D02*
X183690434Y-102486695D01*
X183690434Y-102486695D02*
X183738053Y-102391457D01*
X183452339Y-103820028D02*
X183452339Y-103629552D01*
X183452339Y-103629552D02*
X183499958Y-103534314D01*
X183499958Y-103534314D02*
X183547577Y-103486695D01*
X183547577Y-103486695D02*
X183690434Y-103391457D01*
X183690434Y-103391457D02*
X183880910Y-103343838D01*
X183880910Y-103343838D02*
X184261862Y-103343838D01*
X184261862Y-103343838D02*
X184357100Y-103391457D01*
X184357100Y-103391457D02*
X184404720Y-103439076D01*
X184404720Y-103439076D02*
X184452339Y-103534314D01*
X184452339Y-103534314D02*
X184452339Y-103724790D01*
X184452339Y-103724790D02*
X184404720Y-103820028D01*
X184404720Y-103820028D02*
X184357100Y-103867647D01*
X184357100Y-103867647D02*
X184261862Y-103915266D01*
X184261862Y-103915266D02*
X184023767Y-103915266D01*
X184023767Y-103915266D02*
X183928529Y-103867647D01*
X183928529Y-103867647D02*
X183880910Y-103820028D01*
X183880910Y-103820028D02*
X183833291Y-103724790D01*
X183833291Y-103724790D02*
X183833291Y-103534314D01*
X183833291Y-103534314D02*
X183880910Y-103439076D01*
X183880910Y-103439076D02*
X183928529Y-103391457D01*
X183928529Y-103391457D02*
X184023767Y-103343838D01*
X102754819Y-61574076D02*
X101754819Y-61574076D01*
X101754819Y-61574076D02*
X101754819Y-61812171D01*
X101754819Y-61812171D02*
X101802438Y-61955028D01*
X101802438Y-61955028D02*
X101897676Y-62050266D01*
X101897676Y-62050266D02*
X101992914Y-62097885D01*
X101992914Y-62097885D02*
X102183390Y-62145504D01*
X102183390Y-62145504D02*
X102326247Y-62145504D01*
X102326247Y-62145504D02*
X102516723Y-62097885D01*
X102516723Y-62097885D02*
X102611961Y-62050266D01*
X102611961Y-62050266D02*
X102707200Y-61955028D01*
X102707200Y-61955028D02*
X102754819Y-61812171D01*
X102754819Y-61812171D02*
X102754819Y-61574076D01*
X102088152Y-63002647D02*
X102754819Y-63002647D01*
X101707200Y-62764552D02*
X102421485Y-62526457D01*
X102421485Y-62526457D02*
X102421485Y-63145504D01*
X101850057Y-63478838D02*
X101802438Y-63526457D01*
X101802438Y-63526457D02*
X101754819Y-63621695D01*
X101754819Y-63621695D02*
X101754819Y-63859790D01*
X101754819Y-63859790D02*
X101802438Y-63955028D01*
X101802438Y-63955028D02*
X101850057Y-64002647D01*
X101850057Y-64002647D02*
X101945295Y-64050266D01*
X101945295Y-64050266D02*
X102040533Y-64050266D01*
X102040533Y-64050266D02*
X102183390Y-64002647D01*
X102183390Y-64002647D02*
X102754819Y-63431219D01*
X102754819Y-63431219D02*
X102754819Y-64050266D01*
X84718393Y-65687140D02*
X83718393Y-65687140D01*
X83718393Y-65687140D02*
X83718393Y-65925235D01*
X83718393Y-65925235D02*
X83766012Y-66068092D01*
X83766012Y-66068092D02*
X83861250Y-66163330D01*
X83861250Y-66163330D02*
X83956488Y-66210949D01*
X83956488Y-66210949D02*
X84146964Y-66258568D01*
X84146964Y-66258568D02*
X84289821Y-66258568D01*
X84289821Y-66258568D02*
X84480297Y-66210949D01*
X84480297Y-66210949D02*
X84575535Y-66163330D01*
X84575535Y-66163330D02*
X84670774Y-66068092D01*
X84670774Y-66068092D02*
X84718393Y-65925235D01*
X84718393Y-65925235D02*
X84718393Y-65687140D01*
X83718393Y-66591902D02*
X83718393Y-67210949D01*
X83718393Y-67210949D02*
X84099345Y-66877616D01*
X84099345Y-66877616D02*
X84099345Y-67020473D01*
X84099345Y-67020473D02*
X84146964Y-67115711D01*
X84146964Y-67115711D02*
X84194583Y-67163330D01*
X84194583Y-67163330D02*
X84289821Y-67210949D01*
X84289821Y-67210949D02*
X84527916Y-67210949D01*
X84527916Y-67210949D02*
X84623154Y-67163330D01*
X84623154Y-67163330D02*
X84670774Y-67115711D01*
X84670774Y-67115711D02*
X84718393Y-67020473D01*
X84718393Y-67020473D02*
X84718393Y-66734759D01*
X84718393Y-66734759D02*
X84670774Y-66639521D01*
X84670774Y-66639521D02*
X84623154Y-66591902D01*
X66698393Y-94938449D02*
X65698393Y-94938449D01*
X65698393Y-94938449D02*
X65698393Y-95176544D01*
X65698393Y-95176544D02*
X65746012Y-95319401D01*
X65746012Y-95319401D02*
X65841250Y-95414639D01*
X65841250Y-95414639D02*
X65936488Y-95462258D01*
X65936488Y-95462258D02*
X66126964Y-95509877D01*
X66126964Y-95509877D02*
X66269821Y-95509877D01*
X66269821Y-95509877D02*
X66460297Y-95462258D01*
X66460297Y-95462258D02*
X66555535Y-95414639D01*
X66555535Y-95414639D02*
X66650774Y-95319401D01*
X66650774Y-95319401D02*
X66698393Y-95176544D01*
X66698393Y-95176544D02*
X66698393Y-94938449D01*
X66698393Y-96462258D02*
X66698393Y-95890830D01*
X66698393Y-96176544D02*
X65698393Y-96176544D01*
X65698393Y-96176544D02*
X65841250Y-96081306D01*
X65841250Y-96081306D02*
X65936488Y-95986068D01*
X65936488Y-95986068D02*
X65984107Y-95890830D01*
X65698393Y-96795592D02*
X65698393Y-97462258D01*
X65698393Y-97462258D02*
X66698393Y-97033687D01*
X120718393Y-81108449D02*
X119718393Y-81108449D01*
X119718393Y-81108449D02*
X119718393Y-81346544D01*
X119718393Y-81346544D02*
X119766012Y-81489401D01*
X119766012Y-81489401D02*
X119861250Y-81584639D01*
X119861250Y-81584639D02*
X119956488Y-81632258D01*
X119956488Y-81632258D02*
X120146964Y-81679877D01*
X120146964Y-81679877D02*
X120289821Y-81679877D01*
X120289821Y-81679877D02*
X120480297Y-81632258D01*
X120480297Y-81632258D02*
X120575535Y-81584639D01*
X120575535Y-81584639D02*
X120670774Y-81489401D01*
X120670774Y-81489401D02*
X120718393Y-81346544D01*
X120718393Y-81346544D02*
X120718393Y-81108449D01*
X120718393Y-82632258D02*
X120718393Y-82060830D01*
X120718393Y-82346544D02*
X119718393Y-82346544D01*
X119718393Y-82346544D02*
X119861250Y-82251306D01*
X119861250Y-82251306D02*
X119956488Y-82156068D01*
X119956488Y-82156068D02*
X120004107Y-82060830D01*
X119718393Y-83251306D02*
X119718393Y-83346544D01*
X119718393Y-83346544D02*
X119766012Y-83441782D01*
X119766012Y-83441782D02*
X119813631Y-83489401D01*
X119813631Y-83489401D02*
X119908869Y-83537020D01*
X119908869Y-83537020D02*
X120099345Y-83584639D01*
X120099345Y-83584639D02*
X120337440Y-83584639D01*
X120337440Y-83584639D02*
X120527916Y-83537020D01*
X120527916Y-83537020D02*
X120623154Y-83489401D01*
X120623154Y-83489401D02*
X120670774Y-83441782D01*
X120670774Y-83441782D02*
X120718393Y-83346544D01*
X120718393Y-83346544D02*
X120718393Y-83251306D01*
X120718393Y-83251306D02*
X120670774Y-83156068D01*
X120670774Y-83156068D02*
X120623154Y-83108449D01*
X120623154Y-83108449D02*
X120527916Y-83060830D01*
X120527916Y-83060830D02*
X120337440Y-83013211D01*
X120337440Y-83013211D02*
X120099345Y-83013211D01*
X120099345Y-83013211D02*
X119908869Y-83060830D01*
X119908869Y-83060830D02*
X119813631Y-83108449D01*
X119813631Y-83108449D02*
X119766012Y-83156068D01*
X119766012Y-83156068D02*
X119718393Y-83251306D01*
X48718393Y-86354640D02*
X47718393Y-86354640D01*
X47718393Y-86354640D02*
X47718393Y-86592735D01*
X47718393Y-86592735D02*
X47766012Y-86735592D01*
X47766012Y-86735592D02*
X47861250Y-86830830D01*
X47861250Y-86830830D02*
X47956488Y-86878449D01*
X47956488Y-86878449D02*
X48146964Y-86926068D01*
X48146964Y-86926068D02*
X48289821Y-86926068D01*
X48289821Y-86926068D02*
X48480297Y-86878449D01*
X48480297Y-86878449D02*
X48575535Y-86830830D01*
X48575535Y-86830830D02*
X48670774Y-86735592D01*
X48670774Y-86735592D02*
X48718393Y-86592735D01*
X48718393Y-86592735D02*
X48718393Y-86354640D01*
X48718393Y-87402259D02*
X48718393Y-87592735D01*
X48718393Y-87592735D02*
X48670774Y-87687973D01*
X48670774Y-87687973D02*
X48623154Y-87735592D01*
X48623154Y-87735592D02*
X48480297Y-87830830D01*
X48480297Y-87830830D02*
X48289821Y-87878449D01*
X48289821Y-87878449D02*
X47908869Y-87878449D01*
X47908869Y-87878449D02*
X47813631Y-87830830D01*
X47813631Y-87830830D02*
X47766012Y-87783211D01*
X47766012Y-87783211D02*
X47718393Y-87687973D01*
X47718393Y-87687973D02*
X47718393Y-87497497D01*
X47718393Y-87497497D02*
X47766012Y-87402259D01*
X47766012Y-87402259D02*
X47813631Y-87354640D01*
X47813631Y-87354640D02*
X47908869Y-87307021D01*
X47908869Y-87307021D02*
X48146964Y-87307021D01*
X48146964Y-87307021D02*
X48242202Y-87354640D01*
X48242202Y-87354640D02*
X48289821Y-87402259D01*
X48289821Y-87402259D02*
X48337440Y-87497497D01*
X48337440Y-87497497D02*
X48337440Y-87687973D01*
X48337440Y-87687973D02*
X48289821Y-87783211D01*
X48289821Y-87783211D02*
X48242202Y-87830830D01*
X48242202Y-87830830D02*
X48146964Y-87878449D01*
X140528631Y-116329402D02*
X140481012Y-116377021D01*
X140481012Y-116377021D02*
X140433393Y-116472259D01*
X140433393Y-116472259D02*
X140433393Y-116710354D01*
X140433393Y-116710354D02*
X140481012Y-116805592D01*
X140481012Y-116805592D02*
X140528631Y-116853211D01*
X140528631Y-116853211D02*
X140623869Y-116900830D01*
X140623869Y-116900830D02*
X140719107Y-116900830D01*
X140719107Y-116900830D02*
X140861964Y-116853211D01*
X140861964Y-116853211D02*
X141433393Y-116281783D01*
X141433393Y-116281783D02*
X141433393Y-116900830D01*
X141433393Y-117329402D02*
X140433393Y-117329402D01*
X140433393Y-117329402D02*
X141147678Y-117662735D01*
X141147678Y-117662735D02*
X140433393Y-117996068D01*
X140433393Y-117996068D02*
X141433393Y-117996068D01*
X141433393Y-118996068D02*
X141433393Y-118424640D01*
X141433393Y-118710354D02*
X140433393Y-118710354D01*
X140433393Y-118710354D02*
X140576250Y-118615116D01*
X140576250Y-118615116D02*
X140671488Y-118519878D01*
X140671488Y-118519878D02*
X140719107Y-118424640D01*
X148412339Y-107696576D02*
X147412339Y-107696576D01*
X147412339Y-107696576D02*
X147412339Y-107934671D01*
X147412339Y-107934671D02*
X147459958Y-108077528D01*
X147459958Y-108077528D02*
X147555196Y-108172766D01*
X147555196Y-108172766D02*
X147650434Y-108220385D01*
X147650434Y-108220385D02*
X147840910Y-108268004D01*
X147840910Y-108268004D02*
X147983767Y-108268004D01*
X147983767Y-108268004D02*
X148174243Y-108220385D01*
X148174243Y-108220385D02*
X148269481Y-108172766D01*
X148269481Y-108172766D02*
X148364720Y-108077528D01*
X148364720Y-108077528D02*
X148412339Y-107934671D01*
X148412339Y-107934671D02*
X148412339Y-107696576D01*
X147745672Y-109125147D02*
X148412339Y-109125147D01*
X147364720Y-108887052D02*
X148079005Y-108648957D01*
X148079005Y-108648957D02*
X148079005Y-109268004D01*
X147412339Y-109553719D02*
X147412339Y-110220385D01*
X147412339Y-110220385D02*
X148412339Y-109791814D01*
X102718393Y-95000949D02*
X101718393Y-95000949D01*
X101718393Y-95000949D02*
X101718393Y-95239044D01*
X101718393Y-95239044D02*
X101766012Y-95381901D01*
X101766012Y-95381901D02*
X101861250Y-95477139D01*
X101861250Y-95477139D02*
X101956488Y-95524758D01*
X101956488Y-95524758D02*
X102146964Y-95572377D01*
X102146964Y-95572377D02*
X102289821Y-95572377D01*
X102289821Y-95572377D02*
X102480297Y-95524758D01*
X102480297Y-95524758D02*
X102575535Y-95477139D01*
X102575535Y-95477139D02*
X102670774Y-95381901D01*
X102670774Y-95381901D02*
X102718393Y-95239044D01*
X102718393Y-95239044D02*
X102718393Y-95000949D01*
X102718393Y-96524758D02*
X102718393Y-95953330D01*
X102718393Y-96239044D02*
X101718393Y-96239044D01*
X101718393Y-96239044D02*
X101861250Y-96143806D01*
X101861250Y-96143806D02*
X101956488Y-96048568D01*
X101956488Y-96048568D02*
X102004107Y-95953330D01*
X101813631Y-96905711D02*
X101766012Y-96953330D01*
X101766012Y-96953330D02*
X101718393Y-97048568D01*
X101718393Y-97048568D02*
X101718393Y-97286663D01*
X101718393Y-97286663D02*
X101766012Y-97381901D01*
X101766012Y-97381901D02*
X101813631Y-97429520D01*
X101813631Y-97429520D02*
X101908869Y-97477139D01*
X101908869Y-97477139D02*
X102004107Y-97477139D01*
X102004107Y-97477139D02*
X102146964Y-97429520D01*
X102146964Y-97429520D02*
X102718393Y-96858092D01*
X102718393Y-96858092D02*
X102718393Y-97477139D01*
X120698393Y-97418449D02*
X119698393Y-97418449D01*
X119698393Y-97418449D02*
X119698393Y-97656544D01*
X119698393Y-97656544D02*
X119746012Y-97799401D01*
X119746012Y-97799401D02*
X119841250Y-97894639D01*
X119841250Y-97894639D02*
X119936488Y-97942258D01*
X119936488Y-97942258D02*
X120126964Y-97989877D01*
X120126964Y-97989877D02*
X120269821Y-97989877D01*
X120269821Y-97989877D02*
X120460297Y-97942258D01*
X120460297Y-97942258D02*
X120555535Y-97894639D01*
X120555535Y-97894639D02*
X120650774Y-97799401D01*
X120650774Y-97799401D02*
X120698393Y-97656544D01*
X120698393Y-97656544D02*
X120698393Y-97418449D01*
X119793631Y-98370830D02*
X119746012Y-98418449D01*
X119746012Y-98418449D02*
X119698393Y-98513687D01*
X119698393Y-98513687D02*
X119698393Y-98751782D01*
X119698393Y-98751782D02*
X119746012Y-98847020D01*
X119746012Y-98847020D02*
X119793631Y-98894639D01*
X119793631Y-98894639D02*
X119888869Y-98942258D01*
X119888869Y-98942258D02*
X119984107Y-98942258D01*
X119984107Y-98942258D02*
X120126964Y-98894639D01*
X120126964Y-98894639D02*
X120698393Y-98323211D01*
X120698393Y-98323211D02*
X120698393Y-98942258D01*
X120126964Y-99513687D02*
X120079345Y-99418449D01*
X120079345Y-99418449D02*
X120031726Y-99370830D01*
X120031726Y-99370830D02*
X119936488Y-99323211D01*
X119936488Y-99323211D02*
X119888869Y-99323211D01*
X119888869Y-99323211D02*
X119793631Y-99370830D01*
X119793631Y-99370830D02*
X119746012Y-99418449D01*
X119746012Y-99418449D02*
X119698393Y-99513687D01*
X119698393Y-99513687D02*
X119698393Y-99704163D01*
X119698393Y-99704163D02*
X119746012Y-99799401D01*
X119746012Y-99799401D02*
X119793631Y-99847020D01*
X119793631Y-99847020D02*
X119888869Y-99894639D01*
X119888869Y-99894639D02*
X119936488Y-99894639D01*
X119936488Y-99894639D02*
X120031726Y-99847020D01*
X120031726Y-99847020D02*
X120079345Y-99799401D01*
X120079345Y-99799401D02*
X120126964Y-99704163D01*
X120126964Y-99704163D02*
X120126964Y-99513687D01*
X120126964Y-99513687D02*
X120174583Y-99418449D01*
X120174583Y-99418449D02*
X120222202Y-99370830D01*
X120222202Y-99370830D02*
X120317440Y-99323211D01*
X120317440Y-99323211D02*
X120507916Y-99323211D01*
X120507916Y-99323211D02*
X120603154Y-99370830D01*
X120603154Y-99370830D02*
X120650774Y-99418449D01*
X120650774Y-99418449D02*
X120698393Y-99513687D01*
X120698393Y-99513687D02*
X120698393Y-99704163D01*
X120698393Y-99704163D02*
X120650774Y-99799401D01*
X120650774Y-99799401D02*
X120603154Y-99847020D01*
X120603154Y-99847020D02*
X120507916Y-99894639D01*
X120507916Y-99894639D02*
X120317440Y-99894639D01*
X120317440Y-99894639D02*
X120222202Y-99847020D01*
X120222202Y-99847020D02*
X120174583Y-99799401D01*
X120174583Y-99799401D02*
X120126964Y-99704163D01*
X84728393Y-70190949D02*
X83728393Y-70190949D01*
X83728393Y-70190949D02*
X83728393Y-70429044D01*
X83728393Y-70429044D02*
X83776012Y-70571901D01*
X83776012Y-70571901D02*
X83871250Y-70667139D01*
X83871250Y-70667139D02*
X83966488Y-70714758D01*
X83966488Y-70714758D02*
X84156964Y-70762377D01*
X84156964Y-70762377D02*
X84299821Y-70762377D01*
X84299821Y-70762377D02*
X84490297Y-70714758D01*
X84490297Y-70714758D02*
X84585535Y-70667139D01*
X84585535Y-70667139D02*
X84680774Y-70571901D01*
X84680774Y-70571901D02*
X84728393Y-70429044D01*
X84728393Y-70429044D02*
X84728393Y-70190949D01*
X84728393Y-71714758D02*
X84728393Y-71143330D01*
X84728393Y-71429044D02*
X83728393Y-71429044D01*
X83728393Y-71429044D02*
X83871250Y-71333806D01*
X83871250Y-71333806D02*
X83966488Y-71238568D01*
X83966488Y-71238568D02*
X84014107Y-71143330D01*
X84728393Y-72667139D02*
X84728393Y-72095711D01*
X84728393Y-72381425D02*
X83728393Y-72381425D01*
X83728393Y-72381425D02*
X83871250Y-72286187D01*
X83871250Y-72286187D02*
X83966488Y-72190949D01*
X83966488Y-72190949D02*
X84014107Y-72095711D01*
X238472339Y-78982767D02*
X237472339Y-78982767D01*
X237472339Y-78982767D02*
X237472339Y-79220862D01*
X237472339Y-79220862D02*
X237519958Y-79363719D01*
X237519958Y-79363719D02*
X237615196Y-79458957D01*
X237615196Y-79458957D02*
X237710434Y-79506576D01*
X237710434Y-79506576D02*
X237900910Y-79554195D01*
X237900910Y-79554195D02*
X238043767Y-79554195D01*
X238043767Y-79554195D02*
X238234243Y-79506576D01*
X238234243Y-79506576D02*
X238329481Y-79458957D01*
X238329481Y-79458957D02*
X238424720Y-79363719D01*
X238424720Y-79363719D02*
X238472339Y-79220862D01*
X238472339Y-79220862D02*
X238472339Y-78982767D01*
X237472339Y-79887529D02*
X237472339Y-80554195D01*
X237472339Y-80554195D02*
X238472339Y-80125624D01*
X126587766Y-125025813D02*
X127087766Y-124159788D01*
X127087766Y-124159788D02*
X126881570Y-124040740D01*
X126881570Y-124040740D02*
X126734042Y-124010551D01*
X126734042Y-124010551D02*
X126603945Y-124045411D01*
X126603945Y-124045411D02*
X126515086Y-124104080D01*
X126515086Y-124104080D02*
X126378609Y-124245227D01*
X126378609Y-124245227D02*
X126307180Y-124368945D01*
X126307180Y-124368945D02*
X126253182Y-124557712D01*
X126253182Y-124557712D02*
X126246802Y-124664000D01*
X126246802Y-124664000D02*
X126281661Y-124794098D01*
X126281661Y-124794098D02*
X126381570Y-124906766D01*
X126381570Y-124906766D02*
X126587766Y-125025813D01*
X126215361Y-123766076D02*
X126197931Y-123701027D01*
X126197931Y-123701027D02*
X126139262Y-123612169D01*
X126139262Y-123612169D02*
X125933066Y-123493121D01*
X125933066Y-123493121D02*
X125826778Y-123486741D01*
X125826778Y-123486741D02*
X125761729Y-123504171D01*
X125761729Y-123504171D02*
X125672870Y-123562840D01*
X125672870Y-123562840D02*
X125625251Y-123645319D01*
X125625251Y-123645319D02*
X125595062Y-123792846D01*
X125595062Y-123792846D02*
X125804219Y-124573432D01*
X125804219Y-124573432D02*
X125268109Y-124263908D01*
X125231998Y-123088359D02*
X125149519Y-123040740D01*
X125149519Y-123040740D02*
X125043231Y-123034360D01*
X125043231Y-123034360D02*
X124978182Y-123051790D01*
X124978182Y-123051790D02*
X124889324Y-123110459D01*
X124889324Y-123110459D02*
X124752846Y-123251607D01*
X124752846Y-123251607D02*
X124633799Y-123457804D01*
X124633799Y-123457804D02*
X124579800Y-123646570D01*
X124579800Y-123646570D02*
X124573420Y-123752858D01*
X124573420Y-123752858D02*
X124590850Y-123817907D01*
X124590850Y-123817907D02*
X124649519Y-123906766D01*
X124649519Y-123906766D02*
X124731998Y-123954385D01*
X124731998Y-123954385D02*
X124838286Y-123960764D01*
X124838286Y-123960764D02*
X124903334Y-123943335D01*
X124903334Y-123943335D02*
X124992193Y-123884666D01*
X124992193Y-123884666D02*
X125128670Y-123743518D01*
X125128670Y-123743518D02*
X125247718Y-123537321D01*
X125247718Y-123537321D02*
X125301717Y-123348555D01*
X125301717Y-123348555D02*
X125308096Y-123242266D01*
X125308096Y-123242266D02*
X125290667Y-123177218D01*
X125290667Y-123177218D02*
X125231998Y-123088359D01*
X184462339Y-62629076D02*
X183462339Y-62629076D01*
X183462339Y-62629076D02*
X183462339Y-62867171D01*
X183462339Y-62867171D02*
X183509958Y-63010028D01*
X183509958Y-63010028D02*
X183605196Y-63105266D01*
X183605196Y-63105266D02*
X183700434Y-63152885D01*
X183700434Y-63152885D02*
X183890910Y-63200504D01*
X183890910Y-63200504D02*
X184033767Y-63200504D01*
X184033767Y-63200504D02*
X184224243Y-63152885D01*
X184224243Y-63152885D02*
X184319481Y-63105266D01*
X184319481Y-63105266D02*
X184414720Y-63010028D01*
X184414720Y-63010028D02*
X184462339Y-62867171D01*
X184462339Y-62867171D02*
X184462339Y-62629076D01*
X183795672Y-64057647D02*
X184462339Y-64057647D01*
X183414720Y-63819552D02*
X184129005Y-63581457D01*
X184129005Y-63581457D02*
X184129005Y-64200504D01*
X183462339Y-65010028D02*
X183462339Y-64819552D01*
X183462339Y-64819552D02*
X183509958Y-64724314D01*
X183509958Y-64724314D02*
X183557577Y-64676695D01*
X183557577Y-64676695D02*
X183700434Y-64581457D01*
X183700434Y-64581457D02*
X183890910Y-64533838D01*
X183890910Y-64533838D02*
X184271862Y-64533838D01*
X184271862Y-64533838D02*
X184367100Y-64581457D01*
X184367100Y-64581457D02*
X184414720Y-64629076D01*
X184414720Y-64629076D02*
X184462339Y-64724314D01*
X184462339Y-64724314D02*
X184462339Y-64914790D01*
X184462339Y-64914790D02*
X184414720Y-65010028D01*
X184414720Y-65010028D02*
X184367100Y-65057647D01*
X184367100Y-65057647D02*
X184271862Y-65105266D01*
X184271862Y-65105266D02*
X184033767Y-65105266D01*
X184033767Y-65105266D02*
X183938529Y-65057647D01*
X183938529Y-65057647D02*
X183890910Y-65010028D01*
X183890910Y-65010028D02*
X183843291Y-64914790D01*
X183843291Y-64914790D02*
X183843291Y-64724314D01*
X183843291Y-64724314D02*
X183890910Y-64629076D01*
X183890910Y-64629076D02*
X183938529Y-64581457D01*
X183938529Y-64581457D02*
X184033767Y-64533838D01*
X202462339Y-60495267D02*
X201462339Y-60495267D01*
X201462339Y-60495267D02*
X201462339Y-60733362D01*
X201462339Y-60733362D02*
X201509958Y-60876219D01*
X201509958Y-60876219D02*
X201605196Y-60971457D01*
X201605196Y-60971457D02*
X201700434Y-61019076D01*
X201700434Y-61019076D02*
X201890910Y-61066695D01*
X201890910Y-61066695D02*
X202033767Y-61066695D01*
X202033767Y-61066695D02*
X202224243Y-61019076D01*
X202224243Y-61019076D02*
X202319481Y-60971457D01*
X202319481Y-60971457D02*
X202414720Y-60876219D01*
X202414720Y-60876219D02*
X202462339Y-60733362D01*
X202462339Y-60733362D02*
X202462339Y-60495267D01*
X201557577Y-61447648D02*
X201509958Y-61495267D01*
X201509958Y-61495267D02*
X201462339Y-61590505D01*
X201462339Y-61590505D02*
X201462339Y-61828600D01*
X201462339Y-61828600D02*
X201509958Y-61923838D01*
X201509958Y-61923838D02*
X201557577Y-61971457D01*
X201557577Y-61971457D02*
X201652815Y-62019076D01*
X201652815Y-62019076D02*
X201748053Y-62019076D01*
X201748053Y-62019076D02*
X201890910Y-61971457D01*
X201890910Y-61971457D02*
X202462339Y-61400029D01*
X202462339Y-61400029D02*
X202462339Y-62019076D01*
X118324180Y-121037160D02*
X118599817Y-120075898D01*
X118599817Y-120075898D02*
X118370945Y-120010271D01*
X118370945Y-120010271D02*
X118220497Y-120016668D01*
X118220497Y-120016668D02*
X118102697Y-120081966D01*
X118102697Y-120081966D02*
X118030671Y-120160389D01*
X118030671Y-120160389D02*
X117932394Y-120330361D01*
X117932394Y-120330361D02*
X117893018Y-120467684D01*
X117893018Y-120467684D02*
X117886290Y-120663907D01*
X117886290Y-120663907D02*
X117905813Y-120768581D01*
X117905813Y-120768581D02*
X117971110Y-120886381D01*
X117971110Y-120886381D02*
X118095308Y-120971532D01*
X118095308Y-120971532D02*
X118324180Y-121037160D01*
X117658079Y-119904935D02*
X117625430Y-119846035D01*
X117625430Y-119846035D02*
X117547007Y-119774010D01*
X117547007Y-119774010D02*
X117318135Y-119708382D01*
X117318135Y-119708382D02*
X117213461Y-119727905D01*
X117213461Y-119727905D02*
X117154561Y-119760554D01*
X117154561Y-119760554D02*
X117082535Y-119838977D01*
X117082535Y-119838977D02*
X117056284Y-119930526D01*
X117056284Y-119930526D02*
X117062681Y-120080975D01*
X117062681Y-120080975D02*
X117454467Y-120787774D01*
X117454467Y-120787774D02*
X116859400Y-120617141D01*
X116814617Y-119564000D02*
X116173776Y-119380242D01*
X116173776Y-119380242D02*
X116310108Y-120459634D01*
X243971805Y-104095681D02*
X243971805Y-103095681D01*
X243971805Y-103095681D02*
X243733710Y-103095681D01*
X243733710Y-103095681D02*
X243590853Y-103143300D01*
X243590853Y-103143300D02*
X243495615Y-103238538D01*
X243495615Y-103238538D02*
X243447996Y-103333776D01*
X243447996Y-103333776D02*
X243400377Y-103524252D01*
X243400377Y-103524252D02*
X243400377Y-103667109D01*
X243400377Y-103667109D02*
X243447996Y-103857585D01*
X243447996Y-103857585D02*
X243495615Y-103952823D01*
X243495615Y-103952823D02*
X243590853Y-104048062D01*
X243590853Y-104048062D02*
X243733710Y-104095681D01*
X243733710Y-104095681D02*
X243971805Y-104095681D01*
X243067043Y-103095681D02*
X242447996Y-103095681D01*
X242447996Y-103095681D02*
X242781329Y-103476633D01*
X242781329Y-103476633D02*
X242638472Y-103476633D01*
X242638472Y-103476633D02*
X242543234Y-103524252D01*
X242543234Y-103524252D02*
X242495615Y-103571871D01*
X242495615Y-103571871D02*
X242447996Y-103667109D01*
X242447996Y-103667109D02*
X242447996Y-103905204D01*
X242447996Y-103905204D02*
X242495615Y-104000442D01*
X242495615Y-104000442D02*
X242543234Y-104048062D01*
X242543234Y-104048062D02*
X242638472Y-104095681D01*
X242638472Y-104095681D02*
X242924186Y-104095681D01*
X242924186Y-104095681D02*
X243019424Y-104048062D01*
X243019424Y-104048062D02*
X243067043Y-104000442D01*
X241828948Y-103095681D02*
X241733710Y-103095681D01*
X241733710Y-103095681D02*
X241638472Y-103143300D01*
X241638472Y-103143300D02*
X241590853Y-103190919D01*
X241590853Y-103190919D02*
X241543234Y-103286157D01*
X241543234Y-103286157D02*
X241495615Y-103476633D01*
X241495615Y-103476633D02*
X241495615Y-103714728D01*
X241495615Y-103714728D02*
X241543234Y-103905204D01*
X241543234Y-103905204D02*
X241590853Y-104000442D01*
X241590853Y-104000442D02*
X241638472Y-104048062D01*
X241638472Y-104048062D02*
X241733710Y-104095681D01*
X241733710Y-104095681D02*
X241828948Y-104095681D01*
X241828948Y-104095681D02*
X241924186Y-104048062D01*
X241924186Y-104048062D02*
X241971805Y-104000442D01*
X241971805Y-104000442D02*
X242019424Y-103905204D01*
X242019424Y-103905204D02*
X242067043Y-103714728D01*
X242067043Y-103714728D02*
X242067043Y-103476633D01*
X242067043Y-103476633D02*
X242019424Y-103286157D01*
X242019424Y-103286157D02*
X241971805Y-103190919D01*
X241971805Y-103190919D02*
X241924186Y-103143300D01*
X241924186Y-103143300D02*
X241828948Y-103095681D01*
X96468393Y-119260949D02*
X95468393Y-119260949D01*
X95468393Y-119260949D02*
X95468393Y-119499044D01*
X95468393Y-119499044D02*
X95516012Y-119641901D01*
X95516012Y-119641901D02*
X95611250Y-119737139D01*
X95611250Y-119737139D02*
X95706488Y-119784758D01*
X95706488Y-119784758D02*
X95896964Y-119832377D01*
X95896964Y-119832377D02*
X96039821Y-119832377D01*
X96039821Y-119832377D02*
X96230297Y-119784758D01*
X96230297Y-119784758D02*
X96325535Y-119737139D01*
X96325535Y-119737139D02*
X96420774Y-119641901D01*
X96420774Y-119641901D02*
X96468393Y-119499044D01*
X96468393Y-119499044D02*
X96468393Y-119260949D01*
X95563631Y-120213330D02*
X95516012Y-120260949D01*
X95516012Y-120260949D02*
X95468393Y-120356187D01*
X95468393Y-120356187D02*
X95468393Y-120594282D01*
X95468393Y-120594282D02*
X95516012Y-120689520D01*
X95516012Y-120689520D02*
X95563631Y-120737139D01*
X95563631Y-120737139D02*
X95658869Y-120784758D01*
X95658869Y-120784758D02*
X95754107Y-120784758D01*
X95754107Y-120784758D02*
X95896964Y-120737139D01*
X95896964Y-120737139D02*
X96468393Y-120165711D01*
X96468393Y-120165711D02*
X96468393Y-120784758D01*
X95468393Y-121689520D02*
X95468393Y-121213330D01*
X95468393Y-121213330D02*
X95944583Y-121165711D01*
X95944583Y-121165711D02*
X95896964Y-121213330D01*
X95896964Y-121213330D02*
X95849345Y-121308568D01*
X95849345Y-121308568D02*
X95849345Y-121546663D01*
X95849345Y-121546663D02*
X95896964Y-121641901D01*
X95896964Y-121641901D02*
X95944583Y-121689520D01*
X95944583Y-121689520D02*
X96039821Y-121737139D01*
X96039821Y-121737139D02*
X96277916Y-121737139D01*
X96277916Y-121737139D02*
X96373154Y-121689520D01*
X96373154Y-121689520D02*
X96420774Y-121641901D01*
X96420774Y-121641901D02*
X96468393Y-121546663D01*
X96468393Y-121546663D02*
X96468393Y-121308568D01*
X96468393Y-121308568D02*
X96420774Y-121213330D01*
X96420774Y-121213330D02*
X96373154Y-121165711D01*
X48738393Y-71858449D02*
X47738393Y-71858449D01*
X47738393Y-71858449D02*
X47738393Y-72096544D01*
X47738393Y-72096544D02*
X47786012Y-72239401D01*
X47786012Y-72239401D02*
X47881250Y-72334639D01*
X47881250Y-72334639D02*
X47976488Y-72382258D01*
X47976488Y-72382258D02*
X48166964Y-72429877D01*
X48166964Y-72429877D02*
X48309821Y-72429877D01*
X48309821Y-72429877D02*
X48500297Y-72382258D01*
X48500297Y-72382258D02*
X48595535Y-72334639D01*
X48595535Y-72334639D02*
X48690774Y-72239401D01*
X48690774Y-72239401D02*
X48738393Y-72096544D01*
X48738393Y-72096544D02*
X48738393Y-71858449D01*
X48071726Y-73287020D02*
X48738393Y-73287020D01*
X47690774Y-73048925D02*
X48405059Y-72810830D01*
X48405059Y-72810830D02*
X48405059Y-73429877D01*
X48071726Y-74239401D02*
X48738393Y-74239401D01*
X47690774Y-74001306D02*
X48405059Y-73763211D01*
X48405059Y-73763211D02*
X48405059Y-74382258D01*
X102718393Y-79904640D02*
X101718393Y-79904640D01*
X101718393Y-79904640D02*
X101718393Y-80142735D01*
X101718393Y-80142735D02*
X101766012Y-80285592D01*
X101766012Y-80285592D02*
X101861250Y-80380830D01*
X101861250Y-80380830D02*
X101956488Y-80428449D01*
X101956488Y-80428449D02*
X102146964Y-80476068D01*
X102146964Y-80476068D02*
X102289821Y-80476068D01*
X102289821Y-80476068D02*
X102480297Y-80428449D01*
X102480297Y-80428449D02*
X102575535Y-80380830D01*
X102575535Y-80380830D02*
X102670774Y-80285592D01*
X102670774Y-80285592D02*
X102718393Y-80142735D01*
X102718393Y-80142735D02*
X102718393Y-79904640D01*
X101718393Y-81380830D02*
X101718393Y-80904640D01*
X101718393Y-80904640D02*
X102194583Y-80857021D01*
X102194583Y-80857021D02*
X102146964Y-80904640D01*
X102146964Y-80904640D02*
X102099345Y-80999878D01*
X102099345Y-80999878D02*
X102099345Y-81237973D01*
X102099345Y-81237973D02*
X102146964Y-81333211D01*
X102146964Y-81333211D02*
X102194583Y-81380830D01*
X102194583Y-81380830D02*
X102289821Y-81428449D01*
X102289821Y-81428449D02*
X102527916Y-81428449D01*
X102527916Y-81428449D02*
X102623154Y-81380830D01*
X102623154Y-81380830D02*
X102670774Y-81333211D01*
X102670774Y-81333211D02*
X102718393Y-81237973D01*
X102718393Y-81237973D02*
X102718393Y-80999878D01*
X102718393Y-80999878D02*
X102670774Y-80904640D01*
X102670774Y-80904640D02*
X102623154Y-80857021D01*
X202462267Y-95289076D02*
X201462267Y-95289076D01*
X201462267Y-95289076D02*
X201462267Y-95527171D01*
X201462267Y-95527171D02*
X201509886Y-95670028D01*
X201509886Y-95670028D02*
X201605124Y-95765266D01*
X201605124Y-95765266D02*
X201700362Y-95812885D01*
X201700362Y-95812885D02*
X201890838Y-95860504D01*
X201890838Y-95860504D02*
X202033695Y-95860504D01*
X202033695Y-95860504D02*
X202224171Y-95812885D01*
X202224171Y-95812885D02*
X202319409Y-95765266D01*
X202319409Y-95765266D02*
X202414648Y-95670028D01*
X202414648Y-95670028D02*
X202462267Y-95527171D01*
X202462267Y-95527171D02*
X202462267Y-95289076D01*
X202462267Y-96812885D02*
X202462267Y-96241457D01*
X202462267Y-96527171D02*
X201462267Y-96527171D01*
X201462267Y-96527171D02*
X201605124Y-96431933D01*
X201605124Y-96431933D02*
X201700362Y-96336695D01*
X201700362Y-96336695D02*
X201747981Y-96241457D01*
X201462267Y-97146219D02*
X201462267Y-97765266D01*
X201462267Y-97765266D02*
X201843219Y-97431933D01*
X201843219Y-97431933D02*
X201843219Y-97574790D01*
X201843219Y-97574790D02*
X201890838Y-97670028D01*
X201890838Y-97670028D02*
X201938457Y-97717647D01*
X201938457Y-97717647D02*
X202033695Y-97765266D01*
X202033695Y-97765266D02*
X202271790Y-97765266D01*
X202271790Y-97765266D02*
X202367028Y-97717647D01*
X202367028Y-97717647D02*
X202414648Y-97670028D01*
X202414648Y-97670028D02*
X202462267Y-97574790D01*
X202462267Y-97574790D02*
X202462267Y-97289076D01*
X202462267Y-97289076D02*
X202414648Y-97193838D01*
X202414648Y-97193838D02*
X202367028Y-97146219D01*
X166994819Y-70162767D02*
X165994819Y-70162767D01*
X165994819Y-70162767D02*
X165994819Y-70400862D01*
X165994819Y-70400862D02*
X166042438Y-70543719D01*
X166042438Y-70543719D02*
X166137676Y-70638957D01*
X166137676Y-70638957D02*
X166232914Y-70686576D01*
X166232914Y-70686576D02*
X166423390Y-70734195D01*
X166423390Y-70734195D02*
X166566247Y-70734195D01*
X166566247Y-70734195D02*
X166756723Y-70686576D01*
X166756723Y-70686576D02*
X166851961Y-70638957D01*
X166851961Y-70638957D02*
X166947200Y-70543719D01*
X166947200Y-70543719D02*
X166994819Y-70400862D01*
X166994819Y-70400862D02*
X166994819Y-70162767D01*
X166328152Y-71591338D02*
X166994819Y-71591338D01*
X165947200Y-71353243D02*
X166661485Y-71115148D01*
X166661485Y-71115148D02*
X166661485Y-71734195D01*
X166462339Y-86286576D02*
X165462339Y-86286576D01*
X165462339Y-86286576D02*
X165462339Y-86524671D01*
X165462339Y-86524671D02*
X165509958Y-86667528D01*
X165509958Y-86667528D02*
X165605196Y-86762766D01*
X165605196Y-86762766D02*
X165700434Y-86810385D01*
X165700434Y-86810385D02*
X165890910Y-86858004D01*
X165890910Y-86858004D02*
X166033767Y-86858004D01*
X166033767Y-86858004D02*
X166224243Y-86810385D01*
X166224243Y-86810385D02*
X166319481Y-86762766D01*
X166319481Y-86762766D02*
X166414720Y-86667528D01*
X166414720Y-86667528D02*
X166462339Y-86524671D01*
X166462339Y-86524671D02*
X166462339Y-86286576D01*
X165557577Y-87238957D02*
X165509958Y-87286576D01*
X165509958Y-87286576D02*
X165462339Y-87381814D01*
X165462339Y-87381814D02*
X165462339Y-87619909D01*
X165462339Y-87619909D02*
X165509958Y-87715147D01*
X165509958Y-87715147D02*
X165557577Y-87762766D01*
X165557577Y-87762766D02*
X165652815Y-87810385D01*
X165652815Y-87810385D02*
X165748053Y-87810385D01*
X165748053Y-87810385D02*
X165890910Y-87762766D01*
X165890910Y-87762766D02*
X166462339Y-87191338D01*
X166462339Y-87191338D02*
X166462339Y-87810385D01*
X165557577Y-88191338D02*
X165509958Y-88238957D01*
X165509958Y-88238957D02*
X165462339Y-88334195D01*
X165462339Y-88334195D02*
X165462339Y-88572290D01*
X165462339Y-88572290D02*
X165509958Y-88667528D01*
X165509958Y-88667528D02*
X165557577Y-88715147D01*
X165557577Y-88715147D02*
X165652815Y-88762766D01*
X165652815Y-88762766D02*
X165748053Y-88762766D01*
X165748053Y-88762766D02*
X165890910Y-88715147D01*
X165890910Y-88715147D02*
X166462339Y-88143719D01*
X166462339Y-88143719D02*
X166462339Y-88762766D01*
X66698393Y-60718449D02*
X65698393Y-60718449D01*
X65698393Y-60718449D02*
X65698393Y-60956544D01*
X65698393Y-60956544D02*
X65746012Y-61099401D01*
X65746012Y-61099401D02*
X65841250Y-61194639D01*
X65841250Y-61194639D02*
X65936488Y-61242258D01*
X65936488Y-61242258D02*
X66126964Y-61289877D01*
X66126964Y-61289877D02*
X66269821Y-61289877D01*
X66269821Y-61289877D02*
X66460297Y-61242258D01*
X66460297Y-61242258D02*
X66555535Y-61194639D01*
X66555535Y-61194639D02*
X66650774Y-61099401D01*
X66650774Y-61099401D02*
X66698393Y-60956544D01*
X66698393Y-60956544D02*
X66698393Y-60718449D01*
X66031726Y-62147020D02*
X66698393Y-62147020D01*
X65650774Y-61908925D02*
X66365059Y-61670830D01*
X66365059Y-61670830D02*
X66365059Y-62289877D01*
X65698393Y-62575592D02*
X65698393Y-63194639D01*
X65698393Y-63194639D02*
X66079345Y-62861306D01*
X66079345Y-62861306D02*
X66079345Y-63004163D01*
X66079345Y-63004163D02*
X66126964Y-63099401D01*
X66126964Y-63099401D02*
X66174583Y-63147020D01*
X66174583Y-63147020D02*
X66269821Y-63194639D01*
X66269821Y-63194639D02*
X66507916Y-63194639D01*
X66507916Y-63194639D02*
X66603154Y-63147020D01*
X66603154Y-63147020D02*
X66650774Y-63099401D01*
X66650774Y-63099401D02*
X66698393Y-63004163D01*
X66698393Y-63004163D02*
X66698393Y-62718449D01*
X66698393Y-62718449D02*
X66650774Y-62623211D01*
X66650774Y-62623211D02*
X66603154Y-62575592D01*
X48728393Y-103194640D02*
X47728393Y-103194640D01*
X47728393Y-103194640D02*
X47728393Y-103432735D01*
X47728393Y-103432735D02*
X47776012Y-103575592D01*
X47776012Y-103575592D02*
X47871250Y-103670830D01*
X47871250Y-103670830D02*
X47966488Y-103718449D01*
X47966488Y-103718449D02*
X48156964Y-103766068D01*
X48156964Y-103766068D02*
X48299821Y-103766068D01*
X48299821Y-103766068D02*
X48490297Y-103718449D01*
X48490297Y-103718449D02*
X48585535Y-103670830D01*
X48585535Y-103670830D02*
X48680774Y-103575592D01*
X48680774Y-103575592D02*
X48728393Y-103432735D01*
X48728393Y-103432735D02*
X48728393Y-103194640D01*
X47728393Y-104623211D02*
X47728393Y-104432735D01*
X47728393Y-104432735D02*
X47776012Y-104337497D01*
X47776012Y-104337497D02*
X47823631Y-104289878D01*
X47823631Y-104289878D02*
X47966488Y-104194640D01*
X47966488Y-104194640D02*
X48156964Y-104147021D01*
X48156964Y-104147021D02*
X48537916Y-104147021D01*
X48537916Y-104147021D02*
X48633154Y-104194640D01*
X48633154Y-104194640D02*
X48680774Y-104242259D01*
X48680774Y-104242259D02*
X48728393Y-104337497D01*
X48728393Y-104337497D02*
X48728393Y-104527973D01*
X48728393Y-104527973D02*
X48680774Y-104623211D01*
X48680774Y-104623211D02*
X48633154Y-104670830D01*
X48633154Y-104670830D02*
X48537916Y-104718449D01*
X48537916Y-104718449D02*
X48299821Y-104718449D01*
X48299821Y-104718449D02*
X48204583Y-104670830D01*
X48204583Y-104670830D02*
X48156964Y-104623211D01*
X48156964Y-104623211D02*
X48109345Y-104527973D01*
X48109345Y-104527973D02*
X48109345Y-104337497D01*
X48109345Y-104337497D02*
X48156964Y-104242259D01*
X48156964Y-104242259D02*
X48204583Y-104194640D01*
X48204583Y-104194640D02*
X48299821Y-104147021D01*
X139268393Y-101258449D02*
X138268393Y-101258449D01*
X138268393Y-101258449D02*
X138268393Y-101496544D01*
X138268393Y-101496544D02*
X138316012Y-101639401D01*
X138316012Y-101639401D02*
X138411250Y-101734639D01*
X138411250Y-101734639D02*
X138506488Y-101782258D01*
X138506488Y-101782258D02*
X138696964Y-101829877D01*
X138696964Y-101829877D02*
X138839821Y-101829877D01*
X138839821Y-101829877D02*
X139030297Y-101782258D01*
X139030297Y-101782258D02*
X139125535Y-101734639D01*
X139125535Y-101734639D02*
X139220774Y-101639401D01*
X139220774Y-101639401D02*
X139268393Y-101496544D01*
X139268393Y-101496544D02*
X139268393Y-101258449D01*
X138363631Y-102210830D02*
X138316012Y-102258449D01*
X138316012Y-102258449D02*
X138268393Y-102353687D01*
X138268393Y-102353687D02*
X138268393Y-102591782D01*
X138268393Y-102591782D02*
X138316012Y-102687020D01*
X138316012Y-102687020D02*
X138363631Y-102734639D01*
X138363631Y-102734639D02*
X138458869Y-102782258D01*
X138458869Y-102782258D02*
X138554107Y-102782258D01*
X138554107Y-102782258D02*
X138696964Y-102734639D01*
X138696964Y-102734639D02*
X139268393Y-102163211D01*
X139268393Y-102163211D02*
X139268393Y-102782258D01*
X138268393Y-103639401D02*
X138268393Y-103448925D01*
X138268393Y-103448925D02*
X138316012Y-103353687D01*
X138316012Y-103353687D02*
X138363631Y-103306068D01*
X138363631Y-103306068D02*
X138506488Y-103210830D01*
X138506488Y-103210830D02*
X138696964Y-103163211D01*
X138696964Y-103163211D02*
X139077916Y-103163211D01*
X139077916Y-103163211D02*
X139173154Y-103210830D01*
X139173154Y-103210830D02*
X139220774Y-103258449D01*
X139220774Y-103258449D02*
X139268393Y-103353687D01*
X139268393Y-103353687D02*
X139268393Y-103544163D01*
X139268393Y-103544163D02*
X139220774Y-103639401D01*
X139220774Y-103639401D02*
X139173154Y-103687020D01*
X139173154Y-103687020D02*
X139077916Y-103734639D01*
X139077916Y-103734639D02*
X138839821Y-103734639D01*
X138839821Y-103734639D02*
X138744583Y-103687020D01*
X138744583Y-103687020D02*
X138696964Y-103639401D01*
X138696964Y-103639401D02*
X138649345Y-103544163D01*
X138649345Y-103544163D02*
X138649345Y-103353687D01*
X138649345Y-103353687D02*
X138696964Y-103258449D01*
X138696964Y-103258449D02*
X138744583Y-103210830D01*
X138744583Y-103210830D02*
X138839821Y-103163211D01*
X66698393Y-76428449D02*
X65698393Y-76428449D01*
X65698393Y-76428449D02*
X65698393Y-76666544D01*
X65698393Y-76666544D02*
X65746012Y-76809401D01*
X65746012Y-76809401D02*
X65841250Y-76904639D01*
X65841250Y-76904639D02*
X65936488Y-76952258D01*
X65936488Y-76952258D02*
X66126964Y-76999877D01*
X66126964Y-76999877D02*
X66269821Y-76999877D01*
X66269821Y-76999877D02*
X66460297Y-76952258D01*
X66460297Y-76952258D02*
X66555535Y-76904639D01*
X66555535Y-76904639D02*
X66650774Y-76809401D01*
X66650774Y-76809401D02*
X66698393Y-76666544D01*
X66698393Y-76666544D02*
X66698393Y-76428449D01*
X66698393Y-77952258D02*
X66698393Y-77380830D01*
X66698393Y-77666544D02*
X65698393Y-77666544D01*
X65698393Y-77666544D02*
X65841250Y-77571306D01*
X65841250Y-77571306D02*
X65936488Y-77476068D01*
X65936488Y-77476068D02*
X65984107Y-77380830D01*
X66698393Y-78428449D02*
X66698393Y-78618925D01*
X66698393Y-78618925D02*
X66650774Y-78714163D01*
X66650774Y-78714163D02*
X66603154Y-78761782D01*
X66603154Y-78761782D02*
X66460297Y-78857020D01*
X66460297Y-78857020D02*
X66269821Y-78904639D01*
X66269821Y-78904639D02*
X65888869Y-78904639D01*
X65888869Y-78904639D02*
X65793631Y-78857020D01*
X65793631Y-78857020D02*
X65746012Y-78809401D01*
X65746012Y-78809401D02*
X65698393Y-78714163D01*
X65698393Y-78714163D02*
X65698393Y-78523687D01*
X65698393Y-78523687D02*
X65746012Y-78428449D01*
X65746012Y-78428449D02*
X65793631Y-78380830D01*
X65793631Y-78380830D02*
X65888869Y-78333211D01*
X65888869Y-78333211D02*
X66126964Y-78333211D01*
X66126964Y-78333211D02*
X66222202Y-78380830D01*
X66222202Y-78380830D02*
X66269821Y-78428449D01*
X66269821Y-78428449D02*
X66317440Y-78523687D01*
X66317440Y-78523687D02*
X66317440Y-78714163D01*
X66317440Y-78714163D02*
X66269821Y-78809401D01*
X66269821Y-78809401D02*
X66222202Y-78857020D01*
X66222202Y-78857020D02*
X66126964Y-78904639D01*
X220492339Y-102266576D02*
X219492339Y-102266576D01*
X219492339Y-102266576D02*
X219492339Y-102504671D01*
X219492339Y-102504671D02*
X219539958Y-102647528D01*
X219539958Y-102647528D02*
X219635196Y-102742766D01*
X219635196Y-102742766D02*
X219730434Y-102790385D01*
X219730434Y-102790385D02*
X219920910Y-102838004D01*
X219920910Y-102838004D02*
X220063767Y-102838004D01*
X220063767Y-102838004D02*
X220254243Y-102790385D01*
X220254243Y-102790385D02*
X220349481Y-102742766D01*
X220349481Y-102742766D02*
X220444720Y-102647528D01*
X220444720Y-102647528D02*
X220492339Y-102504671D01*
X220492339Y-102504671D02*
X220492339Y-102266576D01*
X220492339Y-103790385D02*
X220492339Y-103218957D01*
X220492339Y-103504671D02*
X219492339Y-103504671D01*
X219492339Y-103504671D02*
X219635196Y-103409433D01*
X219635196Y-103409433D02*
X219730434Y-103314195D01*
X219730434Y-103314195D02*
X219778053Y-103218957D01*
X219825672Y-104647528D02*
X220492339Y-104647528D01*
X219444720Y-104409433D02*
X220159005Y-104171338D01*
X220159005Y-104171338D02*
X220159005Y-104790385D01*
X148437339Y-91406576D02*
X147437339Y-91406576D01*
X147437339Y-91406576D02*
X147437339Y-91644671D01*
X147437339Y-91644671D02*
X147484958Y-91787528D01*
X147484958Y-91787528D02*
X147580196Y-91882766D01*
X147580196Y-91882766D02*
X147675434Y-91930385D01*
X147675434Y-91930385D02*
X147865910Y-91978004D01*
X147865910Y-91978004D02*
X148008767Y-91978004D01*
X148008767Y-91978004D02*
X148199243Y-91930385D01*
X148199243Y-91930385D02*
X148294481Y-91882766D01*
X148294481Y-91882766D02*
X148389720Y-91787528D01*
X148389720Y-91787528D02*
X148437339Y-91644671D01*
X148437339Y-91644671D02*
X148437339Y-91406576D01*
X147770672Y-92835147D02*
X148437339Y-92835147D01*
X147389720Y-92597052D02*
X148104005Y-92358957D01*
X148104005Y-92358957D02*
X148104005Y-92978004D01*
X147865910Y-93501814D02*
X147818291Y-93406576D01*
X147818291Y-93406576D02*
X147770672Y-93358957D01*
X147770672Y-93358957D02*
X147675434Y-93311338D01*
X147675434Y-93311338D02*
X147627815Y-93311338D01*
X147627815Y-93311338D02*
X147532577Y-93358957D01*
X147532577Y-93358957D02*
X147484958Y-93406576D01*
X147484958Y-93406576D02*
X147437339Y-93501814D01*
X147437339Y-93501814D02*
X147437339Y-93692290D01*
X147437339Y-93692290D02*
X147484958Y-93787528D01*
X147484958Y-93787528D02*
X147532577Y-93835147D01*
X147532577Y-93835147D02*
X147627815Y-93882766D01*
X147627815Y-93882766D02*
X147675434Y-93882766D01*
X147675434Y-93882766D02*
X147770672Y-93835147D01*
X147770672Y-93835147D02*
X147818291Y-93787528D01*
X147818291Y-93787528D02*
X147865910Y-93692290D01*
X147865910Y-93692290D02*
X147865910Y-93501814D01*
X147865910Y-93501814D02*
X147913529Y-93406576D01*
X147913529Y-93406576D02*
X147961148Y-93358957D01*
X147961148Y-93358957D02*
X148056386Y-93311338D01*
X148056386Y-93311338D02*
X148246862Y-93311338D01*
X148246862Y-93311338D02*
X148342100Y-93358957D01*
X148342100Y-93358957D02*
X148389720Y-93406576D01*
X148389720Y-93406576D02*
X148437339Y-93501814D01*
X148437339Y-93501814D02*
X148437339Y-93692290D01*
X148437339Y-93692290D02*
X148389720Y-93787528D01*
X148389720Y-93787528D02*
X148342100Y-93835147D01*
X148342100Y-93835147D02*
X148246862Y-93882766D01*
X148246862Y-93882766D02*
X148056386Y-93882766D01*
X148056386Y-93882766D02*
X147961148Y-93835147D01*
X147961148Y-93835147D02*
X147913529Y-93787528D01*
X147913529Y-93787528D02*
X147865910Y-93692290D01*
X184472339Y-82026576D02*
X183472339Y-82026576D01*
X183472339Y-82026576D02*
X183472339Y-82264671D01*
X183472339Y-82264671D02*
X183519958Y-82407528D01*
X183519958Y-82407528D02*
X183615196Y-82502766D01*
X183615196Y-82502766D02*
X183710434Y-82550385D01*
X183710434Y-82550385D02*
X183900910Y-82598004D01*
X183900910Y-82598004D02*
X184043767Y-82598004D01*
X184043767Y-82598004D02*
X184234243Y-82550385D01*
X184234243Y-82550385D02*
X184329481Y-82502766D01*
X184329481Y-82502766D02*
X184424720Y-82407528D01*
X184424720Y-82407528D02*
X184472339Y-82264671D01*
X184472339Y-82264671D02*
X184472339Y-82026576D01*
X183567577Y-82978957D02*
X183519958Y-83026576D01*
X183519958Y-83026576D02*
X183472339Y-83121814D01*
X183472339Y-83121814D02*
X183472339Y-83359909D01*
X183472339Y-83359909D02*
X183519958Y-83455147D01*
X183519958Y-83455147D02*
X183567577Y-83502766D01*
X183567577Y-83502766D02*
X183662815Y-83550385D01*
X183662815Y-83550385D02*
X183758053Y-83550385D01*
X183758053Y-83550385D02*
X183900910Y-83502766D01*
X183900910Y-83502766D02*
X184472339Y-82931338D01*
X184472339Y-82931338D02*
X184472339Y-83550385D01*
X184472339Y-84502766D02*
X184472339Y-83931338D01*
X184472339Y-84217052D02*
X183472339Y-84217052D01*
X183472339Y-84217052D02*
X183615196Y-84121814D01*
X183615196Y-84121814D02*
X183710434Y-84026576D01*
X183710434Y-84026576D02*
X183758053Y-83931338D01*
X102718393Y-71850949D02*
X101718393Y-71850949D01*
X101718393Y-71850949D02*
X101718393Y-72089044D01*
X101718393Y-72089044D02*
X101766012Y-72231901D01*
X101766012Y-72231901D02*
X101861250Y-72327139D01*
X101861250Y-72327139D02*
X101956488Y-72374758D01*
X101956488Y-72374758D02*
X102146964Y-72422377D01*
X102146964Y-72422377D02*
X102289821Y-72422377D01*
X102289821Y-72422377D02*
X102480297Y-72374758D01*
X102480297Y-72374758D02*
X102575535Y-72327139D01*
X102575535Y-72327139D02*
X102670774Y-72231901D01*
X102670774Y-72231901D02*
X102718393Y-72089044D01*
X102718393Y-72089044D02*
X102718393Y-71850949D01*
X102051726Y-73279520D02*
X102718393Y-73279520D01*
X101670774Y-73041425D02*
X102385059Y-72803330D01*
X102385059Y-72803330D02*
X102385059Y-73422377D01*
X102718393Y-74327139D02*
X102718393Y-73755711D01*
X102718393Y-74041425D02*
X101718393Y-74041425D01*
X101718393Y-74041425D02*
X101861250Y-73946187D01*
X101861250Y-73946187D02*
X101956488Y-73850949D01*
X101956488Y-73850949D02*
X102004107Y-73755711D01*
X202472339Y-77106576D02*
X201472339Y-77106576D01*
X201472339Y-77106576D02*
X201472339Y-77344671D01*
X201472339Y-77344671D02*
X201519958Y-77487528D01*
X201519958Y-77487528D02*
X201615196Y-77582766D01*
X201615196Y-77582766D02*
X201710434Y-77630385D01*
X201710434Y-77630385D02*
X201900910Y-77678004D01*
X201900910Y-77678004D02*
X202043767Y-77678004D01*
X202043767Y-77678004D02*
X202234243Y-77630385D01*
X202234243Y-77630385D02*
X202329481Y-77582766D01*
X202329481Y-77582766D02*
X202424720Y-77487528D01*
X202424720Y-77487528D02*
X202472339Y-77344671D01*
X202472339Y-77344671D02*
X202472339Y-77106576D01*
X201567577Y-78058957D02*
X201519958Y-78106576D01*
X201519958Y-78106576D02*
X201472339Y-78201814D01*
X201472339Y-78201814D02*
X201472339Y-78439909D01*
X201472339Y-78439909D02*
X201519958Y-78535147D01*
X201519958Y-78535147D02*
X201567577Y-78582766D01*
X201567577Y-78582766D02*
X201662815Y-78630385D01*
X201662815Y-78630385D02*
X201758053Y-78630385D01*
X201758053Y-78630385D02*
X201900910Y-78582766D01*
X201900910Y-78582766D02*
X202472339Y-78011338D01*
X202472339Y-78011338D02*
X202472339Y-78630385D01*
X201472339Y-78963719D02*
X201472339Y-79582766D01*
X201472339Y-79582766D02*
X201853291Y-79249433D01*
X201853291Y-79249433D02*
X201853291Y-79392290D01*
X201853291Y-79392290D02*
X201900910Y-79487528D01*
X201900910Y-79487528D02*
X201948529Y-79535147D01*
X201948529Y-79535147D02*
X202043767Y-79582766D01*
X202043767Y-79582766D02*
X202281862Y-79582766D01*
X202281862Y-79582766D02*
X202377100Y-79535147D01*
X202377100Y-79535147D02*
X202424720Y-79487528D01*
X202424720Y-79487528D02*
X202472339Y-79392290D01*
X202472339Y-79392290D02*
X202472339Y-79106576D01*
X202472339Y-79106576D02*
X202424720Y-79011338D01*
X202424720Y-79011338D02*
X202377100Y-78963719D01*
X156547589Y-125750552D02*
X156047589Y-124884527D01*
X156047589Y-124884527D02*
X155841393Y-125003575D01*
X155841393Y-125003575D02*
X155741484Y-125116243D01*
X155741484Y-125116243D02*
X155706625Y-125246340D01*
X155706625Y-125246340D02*
X155713005Y-125352628D01*
X155713005Y-125352628D02*
X155767003Y-125541395D01*
X155767003Y-125541395D02*
X155838432Y-125665113D01*
X155838432Y-125665113D02*
X155974909Y-125806261D01*
X155974909Y-125806261D02*
X156063768Y-125864930D01*
X156063768Y-125864930D02*
X156193865Y-125899789D01*
X156193865Y-125899789D02*
X156341393Y-125869600D01*
X156341393Y-125869600D02*
X156547589Y-125750552D01*
X154977077Y-125887488D02*
X155310410Y-126464838D01*
X154992797Y-125438526D02*
X155556137Y-125938068D01*
X155556137Y-125938068D02*
X155020026Y-126247592D01*
X154815538Y-126750552D02*
X154650581Y-126845791D01*
X154650581Y-126845791D02*
X154544293Y-126852170D01*
X154544293Y-126852170D02*
X154479244Y-126834741D01*
X154479244Y-126834741D02*
X154325337Y-126758642D01*
X154325337Y-126758642D02*
X154188860Y-126617494D01*
X154188860Y-126617494D02*
X153998384Y-126287580D01*
X153998384Y-126287580D02*
X153992004Y-126181291D01*
X153992004Y-126181291D02*
X154009434Y-126116243D01*
X154009434Y-126116243D02*
X154068103Y-126027384D01*
X154068103Y-126027384D02*
X154233060Y-125932146D01*
X154233060Y-125932146D02*
X154339348Y-125925766D01*
X154339348Y-125925766D02*
X154404397Y-125943196D01*
X154404397Y-125943196D02*
X154493255Y-126001865D01*
X154493255Y-126001865D02*
X154612303Y-126208062D01*
X154612303Y-126208062D02*
X154618683Y-126314350D01*
X154618683Y-126314350D02*
X154601253Y-126379399D01*
X154601253Y-126379399D02*
X154542584Y-126468257D01*
X154542584Y-126468257D02*
X154377626Y-126563495D01*
X154377626Y-126563495D02*
X154271338Y-126569875D01*
X154271338Y-126569875D02*
X154206290Y-126552445D01*
X154206290Y-126552445D02*
X154117431Y-126493776D01*
X84748393Y-89307140D02*
X83748393Y-89307140D01*
X83748393Y-89307140D02*
X83748393Y-89545235D01*
X83748393Y-89545235D02*
X83796012Y-89688092D01*
X83796012Y-89688092D02*
X83891250Y-89783330D01*
X83891250Y-89783330D02*
X83986488Y-89830949D01*
X83986488Y-89830949D02*
X84176964Y-89878568D01*
X84176964Y-89878568D02*
X84319821Y-89878568D01*
X84319821Y-89878568D02*
X84510297Y-89830949D01*
X84510297Y-89830949D02*
X84605535Y-89783330D01*
X84605535Y-89783330D02*
X84700774Y-89688092D01*
X84700774Y-89688092D02*
X84748393Y-89545235D01*
X84748393Y-89545235D02*
X84748393Y-89307140D01*
X84748393Y-90830949D02*
X84748393Y-90259521D01*
X84748393Y-90545235D02*
X83748393Y-90545235D01*
X83748393Y-90545235D02*
X83891250Y-90449997D01*
X83891250Y-90449997D02*
X83986488Y-90354759D01*
X83986488Y-90354759D02*
X84034107Y-90259521D01*
D12*
%TO.C,D18*%
X139813574Y-84882735D02*
X139813574Y-88892735D01*
X139813574Y-84882735D02*
X141813574Y-84882735D01*
X141813574Y-84882735D02*
X141813574Y-88892735D01*
%TO.C,D8*%
X221017520Y-64870862D02*
X221017520Y-68880862D01*
X221017520Y-64870862D02*
X223017520Y-64870862D01*
X223017520Y-64870862D02*
X223017520Y-68880862D01*
%TO.C,D29*%
X192277520Y-113250862D02*
X192277520Y-117260862D01*
X192277520Y-113250862D02*
X194277520Y-113250862D01*
X194277520Y-113250862D02*
X194277520Y-117260862D01*
%TO.C,D24*%
X221017520Y-82570862D02*
X221017520Y-86580862D01*
X221017520Y-82570862D02*
X223017520Y-82570862D01*
X223017520Y-82570862D02*
X223017520Y-86580862D01*
%TO.C,D32*%
X170055754Y-119027922D02*
X171161060Y-122882581D01*
X170055754Y-119027922D02*
X171978278Y-118476647D01*
X171978278Y-118476647D02*
X173083584Y-122331306D01*
%TO.C,D31*%
X239027520Y-95280862D02*
X239027520Y-99290862D01*
X239027520Y-95280862D02*
X241027520Y-95280862D01*
X241027520Y-95280862D02*
X241027520Y-99290862D01*
%TO.C,D15*%
X166987520Y-102180862D02*
X166987520Y-106190862D01*
X166987520Y-102180862D02*
X168987520Y-102180862D01*
X168987520Y-102180862D02*
X168987520Y-106190862D01*
D13*
%TO.C,U2*%
X148502520Y-77193862D02*
X148502520Y-60048862D01*
X150407520Y-58143862D02*
X164377520Y-58143862D01*
D14*
X152888520Y-57133862D02*
X152888520Y-58143862D01*
X161383792Y-56633862D02*
X153388520Y-56633862D01*
X161887520Y-58143862D02*
X161883792Y-57133590D01*
D13*
X164377520Y-79098862D02*
X150407520Y-79098862D01*
X166282520Y-77193862D02*
X166282520Y-60048862D01*
X148502520Y-60048862D02*
G75*
G02*
X150407520Y-58143862I1905050J-50D01*
G01*
X150407520Y-79098862D02*
G75*
G02*
X148502520Y-77193862I0J1905000D01*
G01*
D14*
X152888520Y-57133862D02*
G75*
G02*
X153388520Y-56633862I500100J-100D01*
G01*
X161383792Y-56633862D02*
G75*
G02*
X161883793Y-57133590I-18J-500019D01*
G01*
D13*
X164377520Y-58139862D02*
G75*
G02*
X166282520Y-60044862I-1J-1905001D01*
G01*
X166282520Y-77193862D02*
G75*
G02*
X164377520Y-79098862I-1905001J1D01*
G01*
D15*
X165470520Y-59276862D02*
G75*
G02*
X164966520Y-59276862I-252000J0D01*
G01*
X164966520Y-59276862D02*
G75*
G02*
X165470520Y-59276862I252000J0D01*
G01*
X166744520Y-58559862D02*
G75*
G02*
X166240520Y-58559862I-252000J0D01*
G01*
X166240520Y-58559862D02*
G75*
G02*
X166744520Y-58559862I252000J0D01*
G01*
D12*
%TO.C,D16*%
X184997520Y-100293362D02*
X184997520Y-104303362D01*
X184997520Y-100293362D02*
X186997520Y-100293362D01*
X186997520Y-100293362D02*
X186997520Y-104303362D01*
%TO.C,D42*%
X103300000Y-60428362D02*
X103300000Y-64438362D01*
X103300000Y-60428362D02*
X105300000Y-60428362D01*
X105300000Y-60428362D02*
X105300000Y-64438362D01*
%TO.C,D3*%
X85263574Y-64065235D02*
X85263574Y-68075235D01*
X85263574Y-64065235D02*
X87263574Y-64065235D01*
X87263574Y-64065235D02*
X87263574Y-68075235D01*
%TO.C,D17*%
X67243574Y-93792735D02*
X67243574Y-97802735D01*
X67243574Y-93792735D02*
X69243574Y-93792735D01*
X69243574Y-93792735D02*
X69243574Y-97802735D01*
%TO.C,D10*%
X121263574Y-79962735D02*
X121263574Y-83972735D01*
X121263574Y-79962735D02*
X123263574Y-79962735D01*
X123263574Y-79962735D02*
X123263574Y-83972735D01*
%TO.C,D9*%
X49263574Y-84732735D02*
X49263574Y-88742735D01*
X49263574Y-84732735D02*
X51263574Y-84732735D01*
X51263574Y-84732735D02*
X51263574Y-88742735D01*
%TO.C,D47*%
X148957520Y-106550862D02*
X148957520Y-110560862D01*
X148957520Y-106550862D02*
X150957520Y-106550862D01*
X150957520Y-106550862D02*
X150957520Y-110560862D01*
%TO.C,D12*%
X103263574Y-93855235D02*
X103263574Y-97865235D01*
X103263574Y-93855235D02*
X105263574Y-93855235D01*
X105263574Y-93855235D02*
X105263574Y-97865235D01*
%TO.C,D28*%
X121243574Y-96272735D02*
X121243574Y-100282735D01*
X121243574Y-96272735D02*
X123243574Y-96272735D01*
X123243574Y-96272735D02*
X123243574Y-100282735D01*
%TO.C,D11*%
X85273574Y-69045235D02*
X85273574Y-73055235D01*
X85273574Y-69045235D02*
X87273574Y-69045235D01*
X87273574Y-69045235D02*
X87273574Y-73055235D01*
%TO.C,D7*%
X239017520Y-77360862D02*
X239017520Y-81370862D01*
X239017520Y-77360862D02*
X241017520Y-77360862D01*
X241017520Y-77360862D02*
X241017520Y-81370862D01*
%TO.C,D20*%
X124219754Y-121978760D02*
X125219754Y-120246710D01*
X124219754Y-121978760D02*
X127692516Y-123983760D01*
X125219754Y-120246710D02*
X128692516Y-122251710D01*
%TO.C,D46*%
X185007520Y-61483362D02*
X185007520Y-65493362D01*
X185007520Y-61483362D02*
X187007520Y-61483362D01*
X187007520Y-61483362D02*
X187007520Y-65493362D01*
%TO.C,D2*%
X203007520Y-58873362D02*
X203007520Y-62883362D01*
X203007520Y-58873362D02*
X205007520Y-58873362D01*
X205007520Y-58873362D02*
X205007520Y-62883362D01*
%TO.C,D27*%
X115289359Y-118653492D02*
X115840633Y-116730970D01*
X115289359Y-118653492D02*
X119144018Y-119758797D01*
X115840633Y-116730970D02*
X119695293Y-117836276D01*
%TO.C,D30*%
X240397520Y-100640862D02*
X244407520Y-100640862D01*
X240397520Y-102640862D02*
X240397520Y-100640862D01*
X240397520Y-102640862D02*
X244407520Y-102640862D01*
%TO.C,D25*%
X97013574Y-118115235D02*
X97013574Y-122125235D01*
X97013574Y-118115235D02*
X99013574Y-118115235D01*
X99013574Y-118115235D02*
X99013574Y-122125235D01*
%TO.C,D44*%
X49283574Y-70712735D02*
X49283574Y-74722735D01*
X49283574Y-70712735D02*
X51283574Y-70712735D01*
X51283574Y-70712735D02*
X51283574Y-74722735D01*
%TO.C,D5*%
X103263574Y-78282735D02*
X103263574Y-82292735D01*
X103263574Y-78282735D02*
X105263574Y-78282735D01*
X105263574Y-78282735D02*
X105263574Y-82292735D01*
%TO.C,D13*%
X203007448Y-94143362D02*
X203007448Y-98153362D01*
X203007448Y-94143362D02*
X205007448Y-94143362D01*
X205007448Y-94143362D02*
X205007448Y-98153362D01*
%TO.C,D4*%
X167540000Y-68540862D02*
X167540000Y-72550862D01*
X167540000Y-68540862D02*
X169540000Y-68540862D01*
X169540000Y-68540862D02*
X169540000Y-72550862D01*
%TO.C,D22*%
X167007520Y-85140862D02*
X167007520Y-89150862D01*
X167007520Y-85140862D02*
X169007520Y-85140862D01*
X169007520Y-85140862D02*
X169007520Y-89150862D01*
%TO.C,D43*%
X67243574Y-59572735D02*
X67243574Y-63582735D01*
X67243574Y-59572735D02*
X69243574Y-59572735D01*
X69243574Y-59572735D02*
X69243574Y-63582735D01*
%TO.C,D6*%
X49273574Y-101572735D02*
X49273574Y-105582735D01*
X49273574Y-101572735D02*
X51273574Y-101572735D01*
X51273574Y-101572735D02*
X51273574Y-105582735D01*
%TO.C,D26*%
X139813574Y-100112735D02*
X139813574Y-104122735D01*
X139813574Y-100112735D02*
X141813574Y-100112735D01*
X141813574Y-100112735D02*
X141813574Y-104122735D01*
%TO.C,D19*%
X67243574Y-75282735D02*
X67243574Y-79292735D01*
X67243574Y-75282735D02*
X69243574Y-75282735D01*
X69243574Y-75282735D02*
X69243574Y-79292735D01*
%TO.C,D14*%
X221037520Y-101120862D02*
X221037520Y-105130862D01*
X221037520Y-101120862D02*
X223037520Y-101120862D01*
X223037520Y-101120862D02*
X223037520Y-105130862D01*
%TO.C,D48*%
X148982520Y-90260862D02*
X148982520Y-94270862D01*
X148982520Y-90260862D02*
X150982520Y-90260862D01*
X150982520Y-90260862D02*
X150982520Y-94270862D01*
%TO.C,D21*%
X185017520Y-80880862D02*
X185017520Y-84890862D01*
X185017520Y-80880862D02*
X187017520Y-80880862D01*
X187017520Y-80880862D02*
X187017520Y-84890862D01*
D13*
%TO.C,U1*%
X124193074Y-77194235D02*
X124193074Y-60049235D01*
X126098074Y-58144235D02*
X140068074Y-58144235D01*
D14*
X128579074Y-57134235D02*
X128579074Y-58144235D01*
X137074346Y-56634235D02*
X129079074Y-56634235D01*
X137578074Y-58144235D02*
X137574346Y-57133963D01*
D13*
X140068074Y-79099235D02*
X126098074Y-79099235D01*
X141973074Y-77194235D02*
X141973074Y-60049235D01*
X124193074Y-60049235D02*
G75*
G02*
X126098074Y-58144235I1905050J-50D01*
G01*
X126098074Y-79099235D02*
G75*
G02*
X124193074Y-77194235I0J1905000D01*
G01*
D14*
X128579074Y-57134235D02*
G75*
G02*
X129079074Y-56634235I500100J-100D01*
G01*
X137074346Y-56634235D02*
G75*
G02*
X137574347Y-57133963I-18J-500019D01*
G01*
D13*
X140068074Y-58140235D02*
G75*
G02*
X141973074Y-60045235I-1J-1905001D01*
G01*
X141973074Y-77194235D02*
G75*
G02*
X140068074Y-79099235I-1905001J1D01*
G01*
D15*
X141161074Y-59277235D02*
G75*
G02*
X140657074Y-59277235I-252000J0D01*
G01*
X140657074Y-59277235D02*
G75*
G02*
X141161074Y-59277235I252000J0D01*
G01*
X142435074Y-58560235D02*
G75*
G02*
X141931074Y-58560235I-252000J0D01*
G01*
X141931074Y-58560235D02*
G75*
G02*
X142435074Y-58560235I252000J0D01*
G01*
D12*
%TO.C,D41*%
X103263574Y-70705235D02*
X103263574Y-74715235D01*
X103263574Y-70705235D02*
X105263574Y-70705235D01*
X105263574Y-70705235D02*
X105263574Y-74715235D01*
%TO.C,D23*%
X203017520Y-75960862D02*
X203017520Y-79970862D01*
X203017520Y-75960862D02*
X205017520Y-75960862D01*
X205017520Y-75960862D02*
X205017520Y-79970862D01*
%TO.C,D49*%
X157812398Y-125649837D02*
X154339636Y-127654837D01*
X157812398Y-125649837D02*
X158812398Y-127381887D01*
X158812398Y-127381887D02*
X155339636Y-129386887D01*
%TO.C,D1*%
X85293574Y-87685235D02*
X85293574Y-91695235D01*
X85293574Y-87685235D02*
X87293574Y-87685235D01*
X87293574Y-87685235D02*
X87293574Y-91695235D01*
%TD*%
M02*
