M48
; DRILL file {KiCad 9.0.6} date 2026-01-07T23:40:22+0530
; FORMAT={-:-/ absolute / metric / decimal}
; #@! TF.CreationDate,2026-01-07T23:40:22+05:30
; #@! TF.GenerationSoftware,Kicad,Pcbnew,9.0.6
; #@! TF.FileFunction,Plated,1,2,PTH
FMAT,2
METRIC
; #@! TA.AperFunction,Plated,PTH,ViaDrill
T1C0.300
; #@! TA.AperFunction,Plated,PTH,ComponentDrill
T2C2.500
; #@! TA.AperFunction,Plated,PTH,ComponentDrill
T3C3.000
%
G90
G05
T1
X51.504Y-85.443
X55.134Y-76.823
X56.804Y-83.693
X61.564Y-79.723
X78.774Y-100.423
X82.654Y-70.243
X87.88Y-107.768
X88.32Y-65.168
X91.288Y-66.377
X92.754Y-116.943
X106.764Y-102.383
X108.354Y-110.863
X117.224Y-66.813
X120.064Y-65.103
X120.744Y-62.743
X121.084Y-73.053
X121.664Y-75.508
X121.664Y-77.918
X122.692Y-72.654
X127.654Y-64.393
X129.24Y-116.928
X129.24Y-120.628
X129.354Y-75.323
X130.324Y-83.983
X130.874Y-79.393
X132.124Y-81.593
X132.134Y-72.063
X132.894Y-75.503
X133.454Y-110.733
X133.534Y-93.783
X134.524Y-72.293
X135.464Y-111.953
X136.944Y-113.353
X137.399Y-115.968
X138.349Y-72.207
X138.384Y-75.203
X138.434Y-61.413
X138.474Y-73.093
X139.268Y-70.603
X139.714Y-96.153
X140.914Y-81.003
X142.71Y-89.208
X142.92Y-81.858
X148.33Y-113.578
X151.878Y-63.831
X158.968Y-66.651
X162.47Y-114.618
X163.08Y-62.618
X183.73Y-74.798
X183.74Y-76.188
X186.55Y-72.928
X186.61Y-75.168
X189.85Y-112.918
X223.34Y-71.841
X223.38Y-73.968
X237.83Y-66.021
X242.71Y-68.218
T2
X137.528Y-65.681
X137.528Y-69.081
X161.838Y-65.681
X161.838Y-69.081
T3
X41.259Y-82.113
X41.269Y-99.103
X41.274Y-116.103
X46.259Y-79.913
X46.269Y-96.903
X46.274Y-113.903
X59.254Y-70.063
X59.274Y-87.073
X59.274Y-104.073
X64.254Y-67.863
X64.274Y-84.873
X64.274Y-101.873
X77.254Y-63.983
X77.264Y-80.993
X77.274Y-98.003
X82.254Y-61.783
X82.264Y-78.793
X82.274Y-95.803
X88.499Y-128.703
X93.499Y-126.503
X95.274Y-70.473
X95.274Y-87.473
X95.284Y-104.173
X100.274Y-68.273
X100.274Y-85.273
X100.284Y-101.973
X106.837Y-131.286
X112.249Y-130.55
X113.274Y-72.653
X113.274Y-89.643
X113.274Y-106.643
X118.274Y-70.453
X118.274Y-87.443
X118.274Y-104.443
X123.865Y-138.506
X129.296Y-139.1
X131.274Y-94.739
X131.274Y-111.729
X136.274Y-92.539
X136.274Y-109.529
X158.988Y-111.241
X159.003Y-94.241
X163.988Y-109.041
X164.003Y-92.041
X166.447Y-138.506
X169.678Y-134.101
X176.998Y-106.671
X177.001Y-89.671
X177.008Y-72.661
X181.998Y-104.471
X182.001Y-87.471
X182.008Y-70.461
X183.471Y-131.266
X187.671Y-127.773
X195.008Y-87.471
X195.008Y-70.471
X195.008Y-104.463
X200.008Y-85.271
X200.008Y-68.271
X200.008Y-102.263
X201.788Y-128.711
X206.788Y-126.511
X212.998Y-97.981
X213.008Y-63.971
X213.028Y-80.991
X217.998Y-95.781
X218.008Y-61.771
X218.028Y-78.791
X231.018Y-104.051
X231.028Y-87.023
X231.033Y-70.021
X236.018Y-101.851
X236.028Y-84.823
X236.033Y-67.821
X249.018Y-116.101
X249.023Y-82.088
X249.038Y-99.091
X254.018Y-113.901
X254.023Y-79.888
X254.038Y-96.891
M30
